<?xml version="1.0" encoding="UTF-8" standalone="no"?>
<svg
   xmlns:dc="http://purl.org/dc/elements/1.1/"
   xmlns:cc="http://creativecommons.org/ns#"
   xmlns:rdf="http://www.w3.org/1999/02/22-rdf-syntax-ns#"
   xmlns:svg="http://www.w3.org/2000/svg"
   xmlns="http://www.w3.org/2000/svg"
   xml:space="preserve"
   style="enable-background:new 0 0 47.001 47.001;"
   viewBox="0 0 47.001 47.001"
   height="47.001px"
   width="47.001px"
   y="0px"
   x="0px"
   id="Capa_1"
   version="1.1"><metadata
   id="metadata48"><rdf:RDF><cc:Work
       rdf:about=""><dc:format>image/svg+xml</dc:format><dc:type
         rdf:resource="http://purl.org/dc/dcmitype/StillImage" /><dc:title></dc:title></cc:Work></rdf:RDF></metadata><defs
   id="defs46" />
<g
   id="g11">
	<g
   id="Layer_1_164_">
		<g
   id="g8">
			<path
   id="path2"
   d="M44.863,0.001H2.137C0.955,0.001,0,0.958,0,2.137V28.29c0.597-0.319,1.269-0.516,1.992-0.516h2.28v-1.068h6.409     c0.591,0,1.068-0.479,1.068-1.068c0-0.589-0.478-1.068-1.068-1.068H4.272V12.82h7.478v6.409c0,0.59,0.478,1.068,1.068,1.068     h5.341c0.591,0,1.068-0.478,1.068-1.068s-0.478-1.068-1.068-1.068h-4.272v-6.41c0-0.59-0.479-1.068-1.068-1.068H4.272V4.274     h13.887v9.613c0,0.59,0.478,1.068,1.068,1.068s1.068-0.479,1.068-1.068V4.274h10.146v6.409h-3.738     c-0.59,0-1.066,0.479-1.066,1.068s0.477,1.068,1.066,1.068h9.613c0.591,0,1.068-0.479,1.068-1.068s-0.479-1.068-1.068-1.068     h-3.738V4.274h10.148v7.738c0.111,0.059,0.225,0.118,0.33,0.189L47,14.831V2.137C47,0.958,46.042,0.001,44.863,0.001z" />
			<path
   id="path4"
   d="M42.729,24.308v4.534H35.25v-4.272c0-0.59-0.479-1.067-1.068-1.067s-1.068,0.479-1.068,1.067v12.818     c0,0.59,0.479,1.068,1.068,1.068c0.592,0,1.068-0.479,1.068-1.068v-6.408h7.479v11.75H25.637v-8.545h3.204     c0.591,0,1.068-0.479,1.068-1.068s-0.478-1.068-1.068-1.068h-4.272c-0.591,0-1.068,0.479-1.068,1.068v4.271h-9.613     c-0.591,0-1.068,0.479-1.068,1.068s0.478,1.068,1.068,1.068H23.5v3.203H4.272v-6.408h-2.28c-0.724,0-1.396-0.198-1.992-0.518     v9.062C0,46.044,0.955,47,2.137,47h42.726c1.18,0,2.138-0.957,2.138-2.136V21.49l-3.944,2.631     C42.95,24.19,42.838,24.249,42.729,24.308z" />
			<path
   id="path6"
   d="M46.286,16.827l-4.272-2.85c-0.492-0.329-1.123-0.36-1.646-0.08c-0.519,0.279-0.845,0.822-0.845,1.413v0.714H26.848     c-1.18,0-2.138,0.957-2.138,2.136v6.409h-6.409c-1.179,0-2.136,0.957-2.136,2.136v3.205H2.137C0.955,29.91,0,30.867,0,32.046     c0,1.18,0.955,2.137,2.137,2.137h16.164c1.181,0,2.137-0.957,2.137-2.137v-3.205h6.41c1.18,0,2.135-0.957,2.135-2.136v-6.409     h10.541v0.713c0,0.591,0.326,1.134,0.845,1.413c0.237,0.127,0.497,0.189,0.758,0.189c0.312,0,0.619-0.09,0.89-0.269l4.271-2.85     c0.443-0.297,0.714-0.797,0.714-1.333C47.001,17.623,46.73,17.124,46.286,16.827z" />
		</g>
	</g>
</g>
<g
   id="g13">
</g>
<g
   id="g15">
</g>
<g
   id="g17">
</g>
<g
   id="g19">
</g>
<g
   id="g21">
</g>
<g
   id="g23">
</g>
<g
   id="g25">
</g>
<g
   id="g27">
</g>
<g
   id="g29">
</g>
<g
   id="g31">
</g>
<g
   id="g33">
</g>
<g
   id="g35">
</g>
<g
   id="g37">
</g>
<g
   id="g39">
</g>
<g
   id="g41">
</g>
<path
   id="path50"
   d="M 0.05763281,14.900489 0.07257668,1.5812515 0.24136306,1.237486 C 0.45632465,0.79967599 0.82703605,0.42896456 1.2465084,0.2323407 L 1.5758752,0.07795297 H 23.518251 45.460627 l 0.365471,0.19815385 c 0.595289,0.32275839 0.984303,0.85041668 1.108056,1.50296928 0.03746,0.1975301 0.05868,2.6062462 0.05868,6.660988 V 14.79163 L 44.88351,13.390166 42.774187,11.988702 42.773087,8.1292727 42.771987,4.269843 H 37.65499 32.537993 v 3.208964 3.208964 l 1.893578,3.47e-4 c 1.954844,3.47e-4 2.210548,0.02496 2.516443,0.242385 0.557407,0.396192 0.497676,1.345569 -0.106951,1.699904 l -0.236978,0.138854 h -5.07041 c -5.536709,0 -5.303356,0.01407 -5.599254,-0.337584 -0.369646,-0.4393 -0.356797,-0.985404 0.03234,-1.374543 0.141351,-0.141351 0.335631,-0.266846 0.471498,-0.304565 0.147497,-0.04095 0.916039,-0.06427 2.124664,-0.06447 l 1.893578,-3.23e-4 V 7.478807 4.269843 h -5.086835 -5.086835 l -0.01571,4.957994 c -0.01753,5.532691 0.01177,5.152619 -0.422818,5.484099 -0.214971,0.163967 -0.63863,0.244196 -0.918534,0.173945 -0.205413,-0.05156 -0.555797,-0.373473 -0.64882,-0.596106 -0.06353,-0.15205 -0.07812,-1.104948 -0.07812,-5.1034452 V 4.269843 h -6.96721 -6.9672103 v 3.208964 3.208964 l 4.2930735,3.47e-4 c 2.8173308,2.31e-4 4.3681498,0.02117 4.5114758,0.06097 0.271762,0.07547 0.612063,0.368198 0.715317,0.615319 0.06254,0.149673 0.07812,0.850365 0.07812,3.513418 v 3.326436 h 2.287659 c 1.577589,0 2.326858,0.02014 2.41395,0.06488 0.186702,0.09592 0.443325,0.347136 0.536189,0.524891 0.188524,0.360865 0.03838,0.988455 -0.300194,1.254776 -0.290609,0.228594 -0.492162,0.241704 -3.452469,0.224554 l -2.852479,-0.01652 -0.23443,-0.155188 C 12.119465,20.008214 11.977394,19.845666 11.903548,19.69312 11.782915,19.443927 11.780905,19.385099 11.780905,16.104517 V 12.769261 H 8.0227129 4.2644667 v 5.926465 5.926466 h 3.3738713 3.373871 l 0.195087,0.131469 c 0.547232,0.368779 0.672433,1.065789 0.273132,1.520567 -0.369378,0.420698 -0.16479,0.398681 -3.8769041,0.417216 l -3.3390572,0.01667 v 0.518155 0.518155 H 2.9686215 c -1.5650302,0 -1.9249485,0.05513 -2.82425993,0.432623 -0.0968717,0.04066 -0.10096699,-0.586251 -0.08672876,-13.276561 z"
   style="fill:#d76cff;stroke:#ff00ff;stroke-width:0.05781917" /><path
   id="path52"
   d="M 1.7810459,46.932736 C 1.0789825,46.815655 0.420399,46.266204 0.16548607,45.584889 0.04529098,45.263639 0.0436671,45.196897 0.0436671,40.578114 c 0,-2.574651 0.0099115,-4.681184 0.02202567,-4.681184 0.01211413,0 0.20074918,0.06784 0.419189,0.150746 0.64888373,0.246289 1.14791313,0.307586 2.52201793,0.30979 l 1.257567,0.002 v 3.208964 3.208964 h 9.6268923 9.626892 V 41.129565 39.481719 H 18.557122 13.595993 L 13.334775,39.31606 c -0.312273,-0.198039 -0.477198,-0.505015 -0.47235,-0.879191 0.0059,-0.459135 0.310645,-0.852565 0.756088,-0.976276 0.139988,-0.03888 1.904024,-0.05983 5.054892,-0.06004 l 4.839866,-3.47e-4 0.01694,-2.302635 0.01694,-2.302637 0.162827,-0.245946 c 0.307945,-0.465146 0.310633,-0.46556 3.017227,-0.465925 2.351687,-2.89e-4 2.372416,7.17e-4 2.600153,0.129704 0.734579,0.416052 0.72021,1.44277 -0.02546,1.819473 -0.249882,0.126236 -0.308573,0.130093 -1.97984,0.130093 l -1.722324,2.4e-5 v 4.307528 4.307529 h 8.58642 8.58642 l -0.01473,-5.912011 -0.01473,-5.91201 H 38.98488 35.226634 l -0.02891,3.421596 c -0.02837,3.358236 -0.03115,3.424618 -0.149864,3.584789 -0.387848,0.523286 -1.047869,0.615211 -1.526363,0.212584 -0.405808,-0.341465 -0.376354,0.221241 -0.376354,-7.190059 0,-7.411301 -0.02945,-6.848595 0.376354,-7.19006 0.491664,-0.413708 1.172817,-0.304693 1.544758,0.247231 0.131283,0.194811 0.131469,0.198345 0.131469,2.499303 v 2.304216 h 3.787156 3.787156 v -2.283857 c 0,-1.434813 0.02082,-2.283857 0.05601,-2.283857 0.03081,0 0.947962,-0.593389 2.038126,-1.318643 1.090165,-0.725253 2.014947,-1.338416 2.055072,-1.362583 0.05865,-0.03533 0.06999,2.283385 0.05782,11.827277 l -0.01514,11.871218 -0.139489,0.346915 c -0.1908,0.474531 -0.715821,0.999552 -1.190352,1.190353 l -0.346915,0.139488 -21.595461,0.008 C 10.961845,46.98202 1.9668477,46.963722 1.7810459,46.932736 Z"
   style="fill:#d76cff;stroke:#ff00ff;stroke-width:0.05781917" /><path
   id="path54"
   d="M 1.6006998,34.083777 C 1.0247035,33.927423 0.54284187,33.522771 0.2336499,32.935773 0.08867097,32.660533 0.07266129,32.572663 0.0726212,32.051955 0.07258476,31.578658 0.09559158,31.423931 0.19943809,31.199079 0.38869562,30.789291 0.85133051,30.331845 1.2739219,30.136647 l 0.3597724,-0.166182 7.2670952,-0.01533 7.2670945,-0.01533 0.01919,-1.834886 c 0.01859,-1.777714 0.0235,-1.845682 0.157617,-2.181375 0.166785,-0.417461 0.645406,-0.921691 1.07364,-1.131087 l 0.289096,-0.141361 3.510383,-0.01617 3.510382,-0.01617 0.01659,-3.481892 0.01659,-3.481892 0.153823,-0.328132 c 0.215354,-0.45939 0.570648,-0.822301 1.023145,-1.045077 l 0.381674,-0.187908 6.599383,-0.01517 6.599383,-0.01517 0.02834,-0.563017 c 0.03274,-0.650392 0.129728,-0.927042 0.437969,-1.249303 0.447787,-0.468157 1.181995,-0.634559 1.720538,-0.389946 0.314653,0.14292 4.703767,3.07689 4.8652,3.252217 0.528119,0.573574 0.507688,1.574421 -0.04339,2.125499 -0.206914,0.206915 -4.309286,2.966124 -4.742847,3.189986 -0.395033,0.203968 -0.916644,0.191119 -1.355751,-0.0334 -0.603562,-0.308602 -0.894671,-0.857406 -0.894671,-1.68665 v -0.423149 h -5.290454 -5.290455 v 3.343018 c 0,3.708514 4.05e-4,3.703983 -0.377879,4.260203 -0.229203,0.337016 -0.500807,0.565358 -0.881899,0.741424 -0.267913,0.123777 -0.330428,0.126343 -3.77049,0.154773 l -3.49806,0.02891 -0.02891,1.880566 -0.02891,1.880567 -0.187908,0.381468 c -0.222791,0.452281 -0.585873,0.807673 -1.045077,1.02294 l -0.328132,0.153823 -8.470509,0.01103 c -6.5905061,0.0086 -8.5291632,-0.0049 -8.7347802,-0.0607 z"
   style="fill:#ff4141;stroke:#ff00ff;stroke-width:0.05781917" /><path
   id="path4650"
   d="M 0.11474812,14.885979 C 0.11474812,0.63742964 0.08658176,1.1125383 0.96788877,0.49524689 1.2937455,0.26700795 3.6768891,0.2400135 23.500584,0.2400135 c 19.823696,0 22.206839,0.0269945 22.532697,0.25523339 C 46.871677,1.0824837 46.88642,1.2150048 46.88642,8.1640733 V 14.63254 l -2.040111,-1.349804 -2.04011,-1.349804 -0.0041,-3.8840117 -0.0041,-3.8840112 h -5.151425 -5.151425 v 3.2707463 3.2707466 l 1.594488,0.0039 c 1.752577,0.0043 2.795092,0.183164 3.005977,0.515768 0.229159,0.361432 0.158879,0.886304 -0.15695,1.172126 -0.265005,0.239825 -0.887668,0.270651 -5.466819,0.270651 -5.577394,0 -5.685223,-0.01652 -5.679223,-0.870252 0.006,-0.849928 0.67749,-1.082255 3.14559,-1.088294 l 1.594489,-0.0039 V 7.4356554 4.1649091 H 25.395455 20.25822 l -0.05508,5.0447342 c -0.05983,5.4803697 -0.07795,5.5851917 -0.965282,5.5851917 -0.934081,0 -0.970473,-0.212939 -0.970473,-5.6784258 V 4.1649091 H 11.235286 4.203181 v 3.2520219 3.252022 l 4.4942782,0.06245 c 3.9087048,0.05432 4.5295208,0.09769 4.7647678,0.332941 0.228656,0.228656 0.283233,0.801308 0.352894,3.702783 l 0.0824,3.432293 2.323661,0.05573 c 2.543823,0.06101 2.86389,0.168965 2.86389,0.965938 0,0.867893 -0.390104,0.970473 -3.690632,0.970473 -2.663499,0 -2.991121,-0.03029 -3.234358,-0.299067 C 11.926177,19.634031 11.88943,19.123337 11.88943,16.131135 V 12.668849 H 8.0463079 4.203181 v 6.050881 6.050881 h 3.4833448 c 3.7420002,0 3.8758342,0.02896 3.8758342,0.838712 0,0.914123 -0.188898,0.960198 -3.9365767,0.960198 H 4.203181 v 0.55429 0.554289 l -1.7580261,0.07375 c -0.9669144,0.04056 -1.88681181,0.130167 -2.04421648,0.199124 -0.271233,0.118825 -0.2861903,-0.563997 -0.2861903,-13.064995 z"
   style="fill:#d76cff;stroke:#ff00ff;stroke-width:0.16353731" /><path
   id="path4652"
   d="M 0.34835712,27.497466 C 0.30259686,27.378217 0.28650858,21.469175 0.31260537,14.366262 0.36788493,-0.67948963 0.19405574,0.66074461 2.1123564,0.4900662 2.7676096,0.43176586 12.895573,0.40684771 24.618942,0.43469254 l 21.315215,0.0506269 0.303632,0.37500679 c 0.461285,0.56972207 0.503427,1.27791907 0.451427,7.58616247 l -0.0481,5.8351843 -1.836754,-1.174371 -1.836753,-1.17437 -0.003,-3.9657803 -0.003,-3.9657799 h -5.314963 -5.314963 v 3.4149464 3.4149468 l 2.107404,0.06566 c 1.436123,0.04475 2.191462,0.135422 2.371291,0.284668 0.361647,0.300139 0.332192,0.948581 -0.05244,1.154428 -0.411431,0.220191 -9.808031,0.22906 -10.384724,0.0098 -0.289622,-0.110113 -0.41949,-0.281115 -0.41949,-0.552356 0,-0.707978 0.380214,-0.837387 2.641527,-0.899066 l 2.101055,-0.05731 V 7.4169668 3.9968408 l -5.274078,0.04315 -5.274079,0.04315 -0.09189,4.9878881 c -0.05054,2.7433381 -0.151925,5.1206351 -0.225297,5.2828821 -0.209948,0.464257 -1.109881,0.311305 -1.25457,-0.213226 -0.06203,-0.224863 -0.120115,-2.598199 -0.12908,-5.2740777 l -0.0163,-4.8652351 H 11.231968 4.0330078 l 0.044202,3.3933993 0.044202,3.3933985 4.5300867,0.08177 c 3.2152295,0.05804 4.5871555,0.138867 4.7267055,0.27849 0.134174,0.134244 0.227631,1.302858 0.294264,3.67959 l 0.09765,3.482868 2.37129,0.08673 c 1.304211,0.0477 2.463281,0.144037 2.575713,0.214072 0.112432,0.07004 0.204421,0.345592 0.204421,0.612348 0,0.707559 -0.431391,0.803987 -3.596785,0.803987 -2.289047,0 -2.801488,-0.04368 -3.014794,-0.256988 -0.217634,-0.217634 -0.256987,-0.793615 -0.256987,-3.761358 V 12.505312 H 8.0463079 4.0396437 v 6.214418 6.214418 h 3.4209084 c 1.8814994,0 3.5373149,0.04467 3.6795899,0.09927 0.375096,0.143937 0.3344,0.993464 -0.05764,1.203279 -0.188635,0.100955 -1.6739445,0.169291 -3.6795892,0.169291 H 4.0396437 v 0.548141 0.548143 L 2.6904608,27.607295 C 0.76742847,27.756994 0.44209306,27.741737 0.34835712,27.497466 Z"
   style="fill:#38ffc7;stroke:#ff00ff;stroke-width:0.16353731;fill-opacity:1" /><path
   id="path4654"
   d="M 0.80738013,46.28855 0.19651678,45.728951 0.14856413,40.87161 c -0.0456002,-4.619054 -0.0335661,-4.851059 0.24530598,-4.729253 0.16129224,0.07045 1.08437039,0.161276 2.05128479,0.201837 l 1.7580261,0.07375 v 3.253951 3.253953 l 9.689586,-0.04218 9.689586,-0.04218 v -1.717142 -1.717141 l -5.092429,-0.04319 c -5.521378,-0.04683 -5.496612,-0.04254 -5.496612,-0.950804 0,-0.231334 0.08636,-0.507076 0.191918,-0.612762 0.135127,-0.135294 1.701841,-0.216352 5.29452,-0.273925 l 5.102603,-0.08177 0.08177,-2.448605 c 0.100618,-3.013054 -0.06515,-2.860485 3.111704,-2.863947 2.498469,-0.0027 2.939176,0.144043 2.939176,0.978813 0,0.79469 -0.473759,0.981224 -2.492119,0.981224 H 25.45769 l 0.04356,4.374623 0.04356,4.374623 8.626593,0.04233 8.626593,0.04233 V 36.873819 30.821493 H 38.95487 35.111743 v 3.490705 c 0,3.174049 -0.02713,3.515259 -0.299068,3.761358 -0.368778,0.333741 -0.823922,0.338492 -1.254537,0.0131 -0.317967,-0.240274 -0.327074,-0.438565 -0.327074,-7.121863 0,-6.616466 0.01192,-6.883427 0.317447,-7.106822 0.435655,-0.318548 0.968693,-0.290938 1.292579,0.06695 0.225044,0.24867 0.270653,0.689607 0.270653,2.616597 v 2.317525 h 3.838512 3.838511 l 0.0455,-2.242643 0.0455,-2.242642 1.880679,-1.262083 c 1.034374,-0.694145 1.935873,-1.267179 2.003332,-1.273409 0.06746,-0.0062 0.122653,5.332735 0.122653,11.864367 v 11.875695 l -0.634909,0.63491 -0.63491,0.634909 H 23.517422 1.4182435 Z"
   style="fill:#38ffc7;fill-opacity:1;stroke:#38ffc7;stroke-width:0.16353731;stroke-opacity:1" /><path
   id="path4656"
   d="M 0.48707225,27.375227 C 0.44846018,27.274605 0.44406045,21.579292 0.47729503,14.718977 0.53859126,2.0661517 0.56976825,1.2499928 1.0085701,0.81112797 1.1773822,0.64229157 3.5855959,0.61701032 22.22581,0.58839094 c 11.564746,-0.017756 21.642581,0.010369 22.395187,0.0625 l 1.368375,0.0947837 0.256625,0.43749996 c 0.248027,0.4228397 0.257922,0.6460956 0.295317,6.6625158 l 0.03869,6.2250156 -0.538692,-0.338385 C 45.745032,13.54621 44.954183,13.038805 44.28387,12.604755 L 43.06512,11.815574 V 7.8118741 3.8081746 h -5.4375 -5.4375 v 3.5625 c 0,2.7637954 0.03503,3.5637064 0.15625,3.5678834 0.08594,0.003 1.081476,0.05421 2.212309,0.113897 1.748085,0.09226 2.080427,0.141841 2.21875,0.331008 0.192001,0.262578 0.201422,0.419837 0.04042,0.674712 -0.101279,0.160328 -0.821056,0.192921 -4.966836,0.224909 -2.666616,0.02058 -5.028036,0.0046 -5.247599,-0.03559 -0.584274,-0.106846 -0.709731,-0.789689 -0.18488,-1.006265 0.114996,-0.04745 1.109085,-0.133311 2.209085,-0.190795 1.1,-0.05749 2.042188,-0.107384 2.09375,-0.110888 0.05156,-0.0035 0.09375,-1.5978514 0.09375,-3.5429961 V 3.8599212 l -5.34375,0.050621 c -2.939062,0.027841 -5.370799,0.07606 -5.403859,0.1071524 -0.03306,0.031092 -0.100063,2.0919825 -0.148897,4.5797559 -0.04883,2.4877735 -0.12427,4.8185365 -0.167636,5.1794745 -0.07413,0.616992 -0.09982,0.65625 -0.429547,0.65625 -0.679366,0 -0.676743,0.01967 -0.73453,-5.5115595 L 18.53348,3.8081747 H 11.2368 3.9401202 v 3.5409084 3.5409079 l 4.6274524,0.128211 c 2.5450984,0.07052 4.6592834,0.160043 4.6981904,0.198949 0.114021,0.114021 0.289517,3.126056 0.296627,5.091024 0.0036,0.996875 0.04901,1.879263 0.100898,1.960865 0.06247,0.09824 0.913988,0.19255 2.52067,0.279163 1.700537,0.09167 2.456392,0.178162 2.526831,0.289135 0.179727,0.28315 0.110284,0.58622 -0.176919,0.772117 -0.553787,0.358446 -5.542072,0.414386 -6.102521,0.06844 -0.145839,-0.09002 -0.19023,-0.772514 -0.241229,-3.70877 l -0.0625,-3.598445 -4.0937498,-0.03296 -4.09375,-0.03296 v 6.376709 6.376708 h 3.0450536 c 3.2718982,0 4.1554672,0.06576 4.2516622,0.316442 0.09751,0.254113 -0.05298,0.659041 -0.277784,0.747425 -0.113537,0.04464 -1.7392443,0.113394 -3.6126818,0.152791 l -3.40625,0.07163 v 0.524503 0.524502 l -1.21875,0.08071 C 0.89471046,27.597137 0.56653767,27.58231 0.48707225,27.375227 Z"
   style="fill:none;fill-opacity:1;stroke:#38ffc7;stroke-width:0.125;stroke-opacity:1" /><path
   id="path4658"
   d="M 0.48793508,27.377475 C 0.36211143,27.049583 0.52929686,2.151264 0.66117699,1.577185 0.72984614,1.2782657 0.87895024,0.9407657 0.99251941,0.82718499 1.1826703,0.63701475 2.9418809,0.61776692 23.225816,0.58392667 c 12.114744,-0.0202114 22.203911,-0.004671 22.420373,0.0345346 0.29618,0.053644 0.450832,0.18645959 0.625,0.53674793 0.214281,0.4309683 0.234232,0.9277378 0.2692,6.702861 l 0.03777,6.2373958 -0.287765,-0.181556 c -0.158272,-0.09985 -0.947827,-0.600434 -1.754565,-1.112396 l -1.4668,-0.930839 -0.0332,-4.0000004 -0.0332,-4 h -5.375 -5.375 l -0.02258,3.53125 -0.02258,3.5312504 0.585078,0.0046 c 1.42552,0.01131 3.797496,0.235426 3.965246,0.374646 0.266545,0.221213 0.224985,0.714087 -0.07369,0.873934 -0.356295,0.190683 -10.006657,0.190683 -10.362952,0 -0.298678,-0.159847 -0.340238,-0.652721 -0.07369,-0.873934 0.167842,-0.139296 2.54016,-0.363351 3.966792,-0.374646 l 0.586622,-0.0046 0.01035,-3.5055364 0.01035,-3.505536 -5.378225,0.017723 c -4.910331,0.016181 -5.378311,0.035693 -5.3792,0.224286 -0.0076,1.6065695 -0.269511,9.6712104 -0.322376,9.9253134 -0.05743,0.27606 -0.140388,0.34375 -0.421276,0.34375 -0.689639,0 -0.687603,0.01479 -0.755374,-5.4878474 l -0.06249,-5.0746529 h -7.25 -7.2499998 v 3.5 3.5000003 l 3.75,0.08901 c 2.0625,0.04896 4.1516248,0.123488 4.6424998,0.165626 0.880439,0.07558 0.893569,0.08196 0.971581,0.472015 0.04349,0.217471 0.108005,1.436689 0.143358,2.709374 0.03535,1.272685 0.09433,2.713238 0.131055,3.201226 l 0.06678,0.887255 0.709865,0.0222 c 1.293094,0.04044 4.172595,0.26663 4.285915,0.336665 0.139633,0.0863 0.141904,0.562569 0.0037,0.780462 -0.173882,0.274183 -1.841986,0.427528 -4.050369,0.37234 -1.432363,-0.0358 -2.144464,-0.101169 -2.25,-0.206558 -0.111427,-0.111274 -0.175467,-1.135355 -0.230086,-3.679402 -0.04163,-1.938869 -0.08382,-3.539278 -0.09375,-3.556465 -0.0099,-0.01719 -1.846191,-0.03125 -4.0805658,-0.03125 h -4.0625 v 6.3125 6.3125 h 3.3668625 c 1.8850934,0 3.5079763,0.05365 3.6875003,0.121906 0.355003,0.134971 0.414249,0.45229 0.151529,0.81158 -0.155708,0.212945 -0.447882,0.235999 -3.6874996,0.290961 l -3.5183922,0.05969 v 0.527355 0.527353 l -0.84375,0.07969 c -1.4950729,0.1412 -2.53130103,0.101777 -2.60843712,-0.09924 z"
   style="fill:none;fill-opacity:1;stroke:#38ffc7;stroke-width:0.125;stroke-opacity:1" /><path
   id="path4660"
   d="M 0.4722793,14.714425 C 0.52709857,1.4871868 0.53874706,1.1931833 1.0239505,0.79045435 1.1942274,0.64912095 4.9375319,0.61474259 23.365561,0.58526989 c 12.175384,-0.0194726 22.262601,-0.004595 22.416038,0.0330609 0.153437,0.0376561 0.378437,0.2504632 0.5,0.47290471 0.201546,0.3687972 0.224341,0.9579851 0.258675,6.6856891 0.02071,3.4546874 0.0087,6.2812504 -0.02665,6.2812504 -0.03536,0 -0.825745,-0.483964 -1.756401,-1.075477 L 43.065122,11.907222 V 9.4398236 c 0,-1.3570692 -0.03677,-3.15123 -0.08171,-3.9870237 l -0.08171,-1.5196253 h -5.279123 -5.279123 l -0.04542,2.59375 c -0.02498,1.4265625 -0.02674,3.0015625 -0.0039,3.5000004 l 0.04151,0.90625 0.895992,0.0045 c 1.423264,0.0071 3.326751,0.209335 3.525933,0.374641 0.277946,0.230675 0.22418,0.714705 -0.09869,0.88847 -0.40499,0.21796 -9.913039,0.219791 -10.3125,0.002 -0.322735,-0.175971 -0.37638,-0.659993 -0.09869,-0.890455 0.20255,-0.168102 2.111146,-0.367751 3.581487,-0.374641 l 0.95155,-0.0045 0.02463,-3.5156171 0.02463,-3.5156167 -5.364467,0.046867 -5.364466,0.046867 -0.082,3.3125 C 19.844014,14.379211 19.80653,14.687208 19.145704,14.484406 18.99826,14.439156 18.854726,14.381536 18.82674,14.356361 18.665771,14.211563 18.579098,12.769999 18.57207,10.120691 18.56767,8.4706902 18.52753,6.4035027 18.48283,5.5269402 l -0.08128,-1.59375 H 11.23334 4.0651302 v 3.4258344 3.4258344 l 1.15625,0.0705 c 0.6359375,0.03878 2.5599854,0.103992 4.275662,0.144923 3.3948558,0.08099 3.7667888,0.118924 3.8727228,0.394983 0.03884,0.101213 0.129503,1.681968 0.201474,3.512789 0.07197,1.830821 0.155255,3.353163 0.185074,3.382981 0.02982,0.02982 0.94119,0.105178 2.025267,0.167462 1.084078,0.06228 2.19605,0.153845 2.47105,0.203467 0.446701,0.08061 0.50411,0.132299 0.53855,0.484919 0.06576,0.67324 -0.170079,0.723804 -3.375886,0.723804 -2.159738,0 -2.876183,-0.03877 -3,-0.162333 -0.154482,-0.154169 -0.30113,-2.835432 -0.338084,-6.181417 l -0.01208,-1.09375 H 8.0014661 3.9378099 l 0.032406,6.28125 0.032406,6.28125 3.5,0.0625 c 1.925,0.03438 3.5703131,0.108007 3.6562501,0.163627 0.08594,0.05562 0.15625,0.231545 0.15625,0.390944 0,0.595487 -0.189188,0.63047 -3.6128645,0.668046 -1.7597996,0.01931 -3.3261981,0.06257 -3.4808856,0.09613 -0.2323235,0.0504 -0.28125,0.144625 -0.28125,0.541643 0,0.47702 -0.00435,0.481225 -0.5799464,0.560119 -0.3189705,0.04372 -1.111212,0.07949 -1.7605365,0.07949 H 0.41904936 Z"
   style="fill:none;fill-opacity:1;stroke:#38ffc7;stroke-width:0.125;stroke-opacity:1" /><path
   id="path4662"
   d="m 7.1588722,24.962241 -3.09375,-0.03343 v -6.185316 -6.185316 l 3.96875,0.02937 3.9687498,0.02938 -3.8414074,0.03493 -3.8414075,0.03493 -0.033593,6.029447 -0.033592,6.029447 3.1144801,-0.03552 c 1.7334751,-0.01977 3.1643778,0.01438 3.2270108,0.07701 0.189208,0.189207 -0.216105,0.209864 -3.4352409,0.175075 z"
   style="fill:none;fill-opacity:1;stroke:#38ffc7;stroke-width:0.125;stroke-opacity:1" /><path
   id="path4664"
   d="M 0.46763821,14.651925 C 0.5065113,3.7338094 0.54168828,1.6687261 0.69599447,1.2461527 0.8742925,0.75787679 0.89527532,0.74451213 1.6280106,0.65252067 2.0402969,0.60076007 12.190095,0.5724199 24.183118,0.58954254 l 21.805496,0.0311321 0.257005,0.43749996 c 0.248743,0.4234399 0.258148,0.6393626 0.292647,6.71875 0.0196,3.4546874 -0.0085,6.2801654 -0.0625,6.2788404 -0.05398,-0.0013 -0.829394,-0.469134 -1.723144,-1.039573 l -1.625,-1.037161 -0.07761,-1.866678 C 43.007324,9.0856799 42.965136,7.2753621 42.95626,6.0894246 l -0.01614,-2.15625 h -5.314477 -5.314478 l 0.03323,3.46875 0.03323,3.4687504 1.915678,0.09145 c 2.105737,0.10052 2.563097,0.228327 2.621892,0.732675 0.07829,0.671605 0.04408,0.675877 -5.412504,0.675877 -5.456617,0 -5.490927,-0.0043 -5.412636,-0.675877 0.06004,-0.515007 0.520975,-0.64107 2.647691,-0.724125 l 1.925405,-0.07519 0.08831,-3.012402 c 0.04857,-1.6568214 0.0687,-3.2092774 0.04474,-3.4499024 l -0.04357,-0.4375 -2.25,-0.030849 c -1.2375,-0.016967 -3.628125,0.011159 -5.3125,0.0625 l -3.0625,0.093349 -0.02857,1.375 c -0.08416,4.0513349 -0.296757,8.6028954 -0.41187,8.8179834 -0.153574,0.286955 -0.477901,0.314993 -0.812607,0.07025 -0.221377,-0.161875 -0.244578,-0.435209 -0.326257,-3.84375 -0.04836,-2.0182151 -0.09249,-4.3304199 -0.09807,-5.1382324 l -0.01014,-1.46875 h -7.1875 -7.1874998 V 7.3571222 10.78107 l 2.34375,0.07501 c 4.8200048,0.154264 6.7717278,0.267571 6.9050248,0.400869 0.08277,0.08277 0.188206,1.43848 0.272148,3.499423 0.07536,1.850365 0.172495,3.404373 0.215847,3.453348 0.04335,0.04898 1.006253,0.151285 2.139776,0.227354 2.659062,0.178446 2.800179,0.213793 2.849504,0.713746 0.06282,0.63671 -0.218894,0.710756 -2.897256,0.761535 -2.897485,0.05493 -3.423439,-0.0081 -3.583575,-0.429258 -0.06437,-0.169316 -0.154878,-1.824815 -0.20112,-3.678885 l -0.08408,-3.371038 H 8.0451333 4.0651222 v 6.231253 6.231254 l 3.3580359,0.06777 c 3.5525319,0.07169 3.8919639,0.128061 3.8919639,0.646315 0,0.58954 -0.185809,0.624703 -3.7499774,0.709634 -1.8390494,0.04382 -3.4070177,0.118794 -3.4843743,0.166602 -0.077357,0.04781 -0.1406481,0.27345 -0.1406481,0.501424 0,0.364238 -0.047365,0.42397 -0.390625,0.492623 -0.2148438,0.04297 -1.0064918,0.07813 -1.7592179,0.07813 H 0.42168653 Z"
   style="fill:none;fill-opacity:1;stroke:#38ffc7;stroke-width:0.125;stroke-opacity:1" /><path
   id="path4666"
   d="M 0.6720719,27.598797 C 0.53869195,27.563842 0.44177861,27.360727 0.39605037,27.020301 0.3572912,26.731757 0.3694712,20.8988 0.42311706,14.058175 0.53516265,-0.22926391 0.44964348,0.75884897 1.5856774,0.62561962 1.9524971,0.58260053 12.090303,0.56388918 24.114135,0.58403884 l 21.861512,0.0366358 0.263488,0.35277052 c 0.258724,0.34639274 0.26415,0.46786024 0.300105,6.71874994 0.02028,3.5257169 -0.01162,6.3659799 -0.07149,6.3659799 -0.08849,0 -3.206376,-1.912265 -3.396906,-2.083394 -0.03123,-0.02805 -0.08748,-1.834821 -0.125,-4.0150514 l -0.06822,-3.964055 h -5.25 -5.25 l 6.25e-4,3.3339945 c 3.75e-4,1.8336969 0.04139,3.3747279 0.09118,3.4245129 0.04978,0.04978 0.912571,0.138006 1.917302,0.196048 2.10437,0.121567 2.473372,0.241656 2.529708,0.823275 0.03364,0.347352 -0.0082,0.414227 -0.3125,0.499131 -0.193206,0.05392 -2.550494,0.09804 -5.238381,0.09804 -5.311945,0 -5.300433,0.0015 -5.300433,-0.690578 0,-0.481739 0.45635,-0.619307 2.3125,-0.697112 0.825,-0.03458 1.682813,-0.09061 1.90625,-0.124507 l 0.40625,-0.06163 V 7.4275105 4.0581746 l -0.78125,-0.01699 c -1.699322,-0.036955 -9.293791,0.037402 -9.489195,0.092909 -0.255045,0.072448 -0.292745,0.5667741 -0.464361,6.0887794 -0.08462,2.722879 -0.17047,4.033667 -0.272205,4.15625 -0.196369,0.23661 -0.671559,0.228235 -0.873758,-0.0154 -0.198707,-0.239429 -0.242297,-1.02113 -0.34813,-6.2430504 l -0.0836,-4.125 h -7.125 -7.1249998 v 3.375 3.3750004 l 2.5625,0.08901 c 5.2198908,0.181307 6.3635708,0.250076 6.5611008,0.394514 0.165208,0.120802 0.228494,0.724304 0.375509,3.580885 0.09725,1.889577 0.179419,3.437388 0.182603,3.439581 0.0032,0.0022 0.13235,0.01266 0.287037,0.02326 2.585615,0.177213 4.192749,0.329077 4.427638,0.418381 0.212523,0.0808 0.291112,0.20862 0.291112,0.473469 0,0.657048 -0.178384,0.701996 -2.970374,0.748456 -2.863091,0.04764 -3.340902,-0.0024 -3.538003,-0.370709 -0.08283,-0.154767 -0.164682,-1.552056 -0.208375,-3.557121 L 12.02641,12.683175 H 8.2434896 c -2.0806063,0 -3.8724298,-0.03435 -3.9818299,-0.07633 -0.1804908,-0.06926 -0.1959059,0.495009 -0.1664735,6.09375 l 0.032436,6.170079 3.3958319,0.0698 c 3.6028429,0.07405 3.7916679,0.107927 3.7916679,0.680202 0,0.544868 -0.266733,0.6137 -2.7342804,0.7056 -1.2805207,0.04769 -2.8154627,0.09125 -3.4109822,0.0968 l -1.0827627,0.01009 -0.084541,0.500392 c -0.06368,0.376916 -0.1512141,0.513759 -0.3547372,0.554559 -0.420938,0.08438 -2.74609115,0.170859 -2.9757467,0.110671 z M 10.283872,12.464729 c -0.9453123,-0.02124 -2.4921873,-0.02124 -3.4374998,0 -0.9453125,0.02123 -0.171875,0.03861 1.71875,0.03861 1.8906248,0 2.6640628,-0.01737 1.7187498,-0.03861 z"
   style="fill:none;fill-opacity:1;stroke:#38ffc7;stroke-width:0.125;stroke-opacity:1" /><path
   id="path4668"
   d="M 0.42629706,27.39025 C 0.20841552,26.912052 0.45816558,1.8020966 0.68673732,1.2054986 0.77695304,0.97002542 0.97794536,0.74008163 1.1510994,0.67424858 1.3348339,0.60439284 10.326798,0.5581746 23.733808,0.5581746 H 46.01122 l 0.245701,0.40625 c 0.234371,0.3875163 0.247344,0.6987837 0.281308,6.75 0.01958,3.4890624 -0.01144,6.3437504 -0.06894,6.3437504 -0.179294,0 -3.208137,-1.881397 -3.372919,-2.095123 -0.115297,-0.149544 -0.15625,-1.010633 -0.15625,-3.2854321 0,-1.6955249 -0.03614,-3.4285239 -0.08031,-3.8511089 L 42.7795,4.0581746 h -5.169694 -5.169693 v 3.375 3.3750004 l 0.34375,0.0028 c 1.005956,0.0083 3.515684,0.263681 3.818981,0.388607 0.304817,0.12555 0.345339,0.202726 0.3125,0.595156 l -0.03773,0.450901 -0.875,0.100037 c -1.095389,0.125234 -9.42194,0.05007 -9.71875,-0.08773 -0.145854,-0.06772 -0.21875,-0.243926 -0.21875,-0.52878 0,-0.347276 0.06207,-0.450818 0.331691,-0.553329 0.254413,-0.09673 3.102335,-0.34808 4.137059,-0.365129 0.121079,-0.002 0.15625,-0.762281 0.15625,-3.3775744 v -3.375 h -4.29364 c -4.618201,0 -6.160189,0.074406 -6.172206,0.297831 -0.0041,0.076818 -0.06911,1.855294 -0.144385,3.952169 -0.224531,6.2542014 -0.23489,6.3248624 -0.912968,6.2283454 C 18.623497,14.459129 18.567639,14.078732 18.49739,9.9768602 18.46107,7.8559356 18.40015,5.6565711 18.36201,5.0893836 l -0.06934,-1.03125 H 11.241401 4.1901222 v 3.3035055 3.3035049 l 0.65625,0.06564 c 0.3609375,0.0361 2.3316116,0.123575 4.3792759,0.194385 2.0476639,0.07081 3.8287439,0.185323 3.9579549,0.254475 0.274804,0.14707 0.328373,0.61494 0.506793,4.426381 0.06399,1.366966 0.145957,2.515005 0.18215,2.551198 0.03619,0.03619 1.036515,0.140936 2.22294,0.232765 1.186425,0.09183 2.283699,0.222271 2.438386,0.289872 0.198724,0.08685 0.28125,0.229244 0.28125,0.485288 0,0.666147 -0.155737,0.701901 -3.244907,0.744961 -2.592157,0.03613 -2.855994,0.02011 -3.114368,-0.189108 -0.273082,-0.221128 -0.284205,-0.314142 -0.341064,-2.851976 -0.03233,-1.442866 -0.08916,-2.973419 -0.126301,-3.40123 l -0.06753,-0.777836 -3.9181997,-0.03466 -3.9181994,-0.03466 0.041452,4.6875 c 0.022799,2.578125 0.082042,5.287553 0.1316518,6.020951 0.081771,1.20884 0.1149532,1.341147 0.355081,1.415795 0.1456847,0.04529 1.6148813,0.127369 3.2648813,0.1824 1.65,0.05503 3.098438,0.14113 3.21875,0.191329 0.145611,0.06076 0.21875,0.22899 0.21875,0.50317 0,0.34422 -0.06091,0.433132 -0.3707,0.541125 -0.203884,0.07108 -1.8120743,0.16955 -3.5737545,0.218835 -2.1441753,0.05999 -3.2165446,0.134945 -3.24386,0.226751 -0.022443,0.07543 -0.073759,0.288082 -0.1140356,0.472562 -0.091598,0.419547 -0.1832395,0.445073 -1.9739759,0.549828 l -1.4638259,0.08563 z M 6.0980909,12.470183 c -0.1537422,-0.02967 -0.4349922,-0.03044 -0.625,-0.0017 -0.1900078,0.02873 -0.064219,0.05301 0.2795313,0.05395 0.34375,9.37e-4 0.4992109,-0.02257 0.3454687,-0.05224 z m 5.6250001,0 c -0.153742,-0.02967 -0.434992,-0.03044 -0.625,-0.0017 -0.190008,0.02873 -0.06422,0.05301 0.279531,0.05395 0.34375,9.37e-4 0.499211,-0.02257 0.345469,-0.05224 z"
   style="fill:none;fill-opacity:1;stroke:#38ffc7;stroke-width:0.125;stroke-opacity:1" /><path
   id="path4670"
   d="M 0.36004293,27.345136 C 0.2448966,26.886357 0.4266898,3.5325595 0.55634118,2.1279692 0.64249715,1.1945908 0.70554822,0.97298564 0.93866485,0.78421925 1.2056369,0.5680384 2.1956804,0.5581746 23.627093,0.5581746 H 46.03637 l 0.233126,0.34375 c 0.218746,0.322547 0.235383,0.7388971 0.269699,6.75 0.02422,4.2431404 -0.0059,6.4062504 -0.08935,6.4062504 -0.1354,0 -2.106166,-1.172423 -2.978468,-1.77191 l -0.53125,-0.365101 V 9.6969335 c 0,-1.223327 -0.03684,-2.9924998 -0.08188,-3.9314949 l -0.08188,-1.707264 H 37.606204 32.43604 l 0.03329,3.34375 0.03329,3.3437504 1.75,0.137818 c 0.9625,0.0758 1.936585,0.179536 2.164634,0.230523 0.444025,0.09928 0.6423,0.416923 0.552727,0.885494 -0.0439,0.229636 -0.162277,0.289712 -0.697615,0.354029 -0.856945,0.102957 -8.760353,0.10184 -9.513163,-0.0013 -0.621799,-0.08523 -0.847638,-0.345327 -0.72084,-0.830198 0.09426,-0.36045 0.561645,-0.471178 2.60538,-0.61724 l 1.891123,-0.135155 0.07654,-0.636963 c 0.0421,-0.3503303 0.07703,-1.868616 0.07763,-3.3739686 l 0.0011,-2.7370053 -5.09375,0.083341 c -2.801562,0.045837 -5.15212,0.091552 -5.223461,0.1015882 -0.07251,0.010201 -0.142424,0.4086705 -0.158544,0.9036641 -0.245492,7.5386156 -0.346069,9.1231726 -0.592027,9.3272996 -0.273057,0.226617 -0.728639,0.08687 -0.902383,-0.276797 C 18.589357,13.887412 18.354287,8.1464275 18.31783,4.339469 l -0.0027,-0.28125 h -7.0625 -7.0624998 v 3.2999134 3.2999126 l 1.53125,0.07558 c 0.8421875,0.04157 2.8530076,0.133498 4.4684888,0.20429 2.103059,0.09216 2.983541,0.175014 3.100274,0.291746 0.172567,0.172568 0.312232,1.685061 0.466072,5.04731 0.05897,1.288752 0.133251,1.906413 0.229318,1.906757 0.415381,0.0015 4.29972,0.38907 4.48598,0.447619 0.294042,0.09243 0.471525,0.451255 0.385642,0.77967 -0.110782,0.423635 -0.761857,0.520897 -3.479525,0.5198 -2.689541,-0.0011 -3.001783,-0.03641 -3.126093,-0.353664 -0.06373,-0.162655 -0.285115,-4.88759 -0.306902,-6.550182 l -0.0045,-0.34375 H 8.0463139 4.1525056 l 0.085006,5.84375 c 0.046753,3.214062 0.092717,5.908332 0.1021416,5.987266 0.021197,0.177534 1.0273005,0.274295 4.2669776,0.410374 1.4077692,0.05913 2.5353432,0.160461 2.6093752,0.234493 0.172027,0.172028 0.166921,0.756313 -0.0081,0.931373 -0.15814,0.15814 -2.1748843,0.302921 -5.0542904,0.362844 l -1.9740464,0.04108 -0.064649,0.313159 c -0.035557,0.172237 -0.1093035,0.397534 -0.1638815,0.500659 -0.1154444,0.218132 -0.9796727,0.344643 -2.4772455,0.362637 -1.01805344,0.01224 -1.02976037,0.0088 -1.11371079,-0.325676 z"
   style="fill:none;fill-opacity:1;stroke:#38ffc7;stroke-width:0.125;stroke-opacity:1" /><path
   id="path4672"
   d="M 0.35970187,27.49405 C 0.23807231,27.177088 0.42408532,3.0607026 0.55682388,1.9373939 0.63871346,1.2443981 0.7314819,0.95198583 0.91714191,0.80164747 1.1420261,0.61954727 2.3757116,0.59047339 13.181941,0.51260685 c 6.60812,-0.0476162 16.714895,-0.0476332 22.4595,-3.786e-5 l 10.444738,0.086537 0.208221,0.3177225 c 0.180741,0.27578881 0.221939,0.97836841 0.312147,5.32328441 0.105435,5.0783061 0.03815,7.8180621 -0.191996,7.8180621 -0.148646,0 -2.646961,-1.49226 -3.11601,-1.861213 l -0.323976,-0.25484 -0.09033,-3.8482236 c -0.04968,-2.1165232 -0.131201,-3.8910585 -0.18116,-3.9434122 -0.04996,-0.052354 -2.365497,-0.080479 -5.145644,-0.0625 l -5.054811,0.032688 0.01467,3.2230018 c 0.0081,1.772651 0.05185,3.260182 0.09729,3.305625 0.04544,0.04544 0.894199,0.151459 1.886126,0.235593 2.050837,0.17395 2.265094,0.222561 2.442572,0.554181 0.234141,0.437496 0.02687,0.831363 -0.481755,0.915467 -0.610357,0.100925 -9.380378,0.100588 -9.885218,-3.75e-4 -0.666726,-0.133346 -0.820825,-0.871477 -0.246145,-1.179037 0.13646,-0.07303 1.131089,-0.199968 2.210285,-0.282083 l 1.962175,-0.149304 0.0945,-1.5615343 c 0.05198,-0.858844 0.0801,-2.3490345 0.0625,-3.3115345 l -0.032,-1.75 -2.1875,0.0016 c -4.180766,0.00305 -8.249372,0.085824 -8.202812,0.1668733 0.06049,0.105302 -0.256974,8.2273085 -0.358965,9.1837185 -0.104965,0.984311 -0.158355,1.08531 -0.573715,1.08531 -0.711685,0 -0.729375,-0.108585 -0.898188,-5.5130176 l -0.15382,-4.924483 h -7 -6.9999998 v 3.25 3.2500006 l 1.625,0.08528 c 0.89375,0.0469 2.8837212,0.144396 4.4221588,0.216647 1.651044,0.07754 2.864956,0.187633 2.962624,0.26869 0.220336,0.182863 0.277832,0.672543 0.472475,4.023947 0.09086,1.564511 0.188276,2.865165 0.216473,2.890341 0.0282,0.02518 1.043652,0.136752 2.256564,0.247945 1.212913,0.111192 2.293584,0.236049 2.401491,0.277456 0.520663,0.199798 0.374164,0.977211 -0.221173,1.17369 -0.446759,0.147444 -5.485868,0.203378 -5.844698,0.06488 -0.114997,-0.04439 -0.247238,-0.174791 -0.29387,-0.289788 -0.04663,-0.114997 -0.139781,-1.64346 -0.206999,-3.396585 -0.06722,-1.753125 -0.144149,-3.257813 -0.170957,-3.34375 -0.0376,-0.120538 -0.923676,-0.15625 -3.8767641,-0.15625 H 4.1669254 l 0.098849,5.71875 c 0.054367,3.145312 0.1017736,5.835937 0.1053484,5.979166 0.00358,0.14323 0.06275,0.262239 0.1314996,0.264466 0.7089577,0.02297 5.5303946,0.314645 6.0316956,0.364894 0.481434,0.04826 0.691785,0.13139 0.788175,0.311495 0.180336,0.336962 0.03183,0.727512 -0.328766,0.864611 -0.165002,0.06273 -1.7465791,0.173059 -3.5146159,0.245168 -3.2821782,0.133861 -3.4075121,0.157458 -3.4120746,0.642395 -0.00396,0.420667 -0.3599954,0.52427 -2.0059379,0.583703 -1.46471824,0.05289 -1.6241433,0.03754 -1.70139653,-0.163773 z"
   style="fill:none;fill-opacity:1;stroke:#38ffc7;stroke-width:0.125;stroke-opacity:1" /><path
   id="path4674"
   d="M 0.35986993,27.494487 C 0.24631705,27.198573 0.42500983,2.6865406 0.54748212,1.7589442 0.71393611,0.49823356 0.00712194,0.60206377 9.1523813,0.49489429 13.536861,0.4435144 23.639736,0.42559213 31.603213,0.45506704 c 12.461852,0.0461245 14.495211,0.0788085 14.595032,0.23459914 0.304589,0.47536622 0.371176,1.44114852 0.447707,6.49350842 0.08204,5.4158144 0.03073,6.8750004 -0.241723,6.8750004 -0.139678,0 -2.821012,-1.583572 -3.236352,-1.91136 C 42.985745,12.003075 42.9482,11.579061 42.882686,8.9259787 42.841191,7.2455615 42.777426,5.4769246 42.740987,4.9956746 l -0.06625,-0.875 -5.054807,0.034008 -5.054806,0.034008 V 7.435933 c 0,2.5131432 0.03532,3.247801 0.15625,3.249712 0.713839,0.01128 3.772446,0.392472 3.961655,0.493734 0.491429,0.263004 0.472693,1.041786 -0.02829,1.176093 -0.15241,0.04086 -2.47086,0.07423 -5.15211,0.07415 -5.279799,-1.5e-4 -5.465885,-0.02191 -5.538797,-0.64777 -0.02783,-0.238881 0.04484,-0.387825 0.257043,-0.52687 0.299868,-0.19648 2.114347,-0.440663 3.304075,-0.444644 1.063892,-0.0036 1.040179,0.07669 1.040179,-3.5199794 v -3.124952 l -5.15625,0.0295 -5.15625,0.0295 -0.03416,1.6981343 c -0.052,2.585155 -0.284637,7.4706621 -0.383526,8.0543761 -0.08303,0.490124 -0.113619,0.520901 -0.55407,0.557567 -0.411476,0.03425 -0.482083,-0.0024 -0.601664,-0.3125 -0.07797,-0.202191 -0.187461,-2.181804 -0.257944,-4.6638087 -0.06736,-2.371875 -0.150361,-4.5515625 -0.184458,-4.84375 l -0.062,-0.53125 h -6.92984 -6.9298408 v 3.1775681 3.1775686 l 0.34375,0.06503 c 0.1890625,0.03577 1.271875,0.09977 2.40625,0.142223 2.8695241,0.107392 5.9453978,0.299502 6.1689708,0.385295 0.250988,0.09631 0.304005,0.496466 0.518725,3.915111 0.101053,1.608914 0.214597,2.956163 0.25232,2.993885 0.03772,0.03772 1.051384,0.167989 2.25258,0.289479 1.201195,0.121491 2.296135,0.28091 2.433198,0.354264 0.288621,0.154465 0.325224,0.597832 0.07734,0.936832 -0.146611,0.200503 -0.426724,0.250405 -1.90625,0.3396 -2.159921,0.130215 -4.353533,0.01862 -4.561582,-0.232066 -0.09712,-0.117018 -0.196837,-1.314995 -0.28972,-3.480471 -0.0779,-1.81612 -0.167835,-3.325474 -0.199858,-3.354118 -0.110947,-0.09924 -7.3089217,-0.204328 -7.4603307,-0.108919 -0.11842,0.07462 -0.1285207,1.382042 -0.045609,5.903533 0.058573,3.194226 0.088546,5.838492 0.066606,5.876147 -0.02194,0.03766 0.4204595,0.08398 0.9831092,0.102937 2.4831203,0.08367 5.7174175,0.36623 5.8968705,0.515162 0.27959,0.23204 0.231131,0.717551 -0.09262,0.927964 -0.250837,0.163025 -2.9616812,0.362861 -6.3731247,0.46981 -0.5643952,0.01769 -0.5954339,0.03753 -0.668537,0.427201 -0.042164,0.224755 -0.1695708,0.448998 -0.2831254,0.498316 -0.1135546,0.04932 -0.9228729,0.116092 -1.798485,0.148385 -1.431418,0.05279 -1.60046653,0.03671 -1.67573027,-0.159426 z"
   style="fill:none;fill-opacity:1;stroke:#38ffc7;stroke-width:0.125;stroke-opacity:1" /><path
   id="path4750"
   d="M 0.39446379,27.612179 C 0.26604802,27.412835 0.32014369,7.8846304 0.46049457,3.7754648 0.5463453,1.2619441 0.56681042,1.0976759 0.82645869,0.83796484 L 1.1014868,0.56287018 10.941831,0.4717343 C 16.35402,0.42160958 26.481423,0.41553225 33.44717,0.45822915 l 12.664995,0.0776307 0.2039,0.31118942 c 0.168325,0.25689683 0.219647,0.86989053 0.294159,3.51350513 0.174739,6.1995206 0.117489,9.7648156 -0.1568,9.7648156 -0.165112,0 -2.807864,-1.593222 -3.194735,-1.925994 l -0.346387,-0.29795 -0.09495,-3.7317779 C 42.765129,6.1171702 42.692528,4.3599984 42.656015,4.2648218 42.600498,4.1201034 41.781817,4.1012471 37.65525,4.1496407 c -2.713908,0.031827 -4.959948,0.083437 -4.991201,0.1146891 -0.03125,0.031252 -0.07371,1.470082 -0.09435,3.1974 -0.02064,1.727318 -0.0022,3.0831522 0.04109,3.0129652 0.05042,-0.08184 0.09652,-0.0739 0.128533,0.02213 0.03156,0.09469 0.692035,0.215463 1.796381,0.32849 1.964984,0.201112 2.405702,0.331418 2.508686,0.741736 0.149369,0.595133 -0.109064,0.77834 -1.229286,0.871461 -1.80345,0.149916 -9.241113,0.0206 -9.571483,-0.16641 -0.402471,-0.227829 -0.341321,-0.896319 0.10105,-1.104692 0.27022,-0.127283 2.2123,-0.362457 3.64547,-0.441444 l 0.45797,-0.02524 0.08155,-1.3814272 c 0.04485,-0.7597852 0.06377,-2.2251776 0.04203,-3.2564276 l -0.03952,-1.875 -0.84375,0.00391 c -0.464062,0.00215 -2.751451,0.016211 -5.083085,0.03125 l -4.239335,0.027344 -0.06686,0.90625 c -0.03677,0.4984375 -0.130291,2.565625 -0.20782,4.59375 -0.154813,4.0497928 -0.213256,4.5998138 -0.508555,4.7860538 -0.268035,0.169045 -0.814795,0.01863 -0.922276,-0.253725 -0.08247,-0.208989 -0.218167,-2.929274 -0.38975,-7.8135788 l -0.07794,-2.21875 h -6.92406 -6.9240636 v 3.1165765 c 0,2.8614433 0.017908,3.1216033 0.21875,3.1779783 0.1203125,0.03377 0.921875,0.09413 1.78125,0.134131 4.4317526,0.206282 6.7082436,0.357193 6.8949876,0.457076 0.270004,0.144417 0.319247,0.498129 0.545911,3.921186 0.110716,1.672023 0.245105,2.9035 0.322043,2.951051 0.07262,0.04488 1.06973,0.178422 2.215798,0.296757 2.157754,0.222794 2.64626,0.374745 2.64626,0.823125 0,0.416992 -0.43012,0.72049 -1.145971,0.80861 -1.124089,0.138375 -5.32078,0.02242 -5.494668,-0.151822 -0.156915,-0.157233 -0.267913,-1.478834 -0.423572,-5.043269 l -0.08499,-1.9461 -3.7691507,-0.0282 -3.7691509,-0.0282 0.063546,5.786804 c 0.03495,3.182743 0.1032789,5.848535 0.1518413,5.923984 0.051651,0.08025 0.7515711,0.170783 1.686454,0.218146 2.516449,0.127489 4.7036803,0.302618 4.9371503,0.39531 0.429282,0.170434 0.429282,0.952938 0,1.124082 -0.204385,0.08148 -2.1186515,0.220752 -5.3195813,0.387017 L 4.320996,26.651511 4.1499928,27.06078 c -0.094052,0.225098 -0.2601209,0.443466 -0.3690425,0.485264 -0.1089215,0.0418 -0.8901749,0.112996 -1.7361186,0.15822 -1.24547861,0.06658 -1.55944105,0.04907 -1.65036791,-0.09208 z M 4.760003,24.788343 C 4.3039113,24.699559 4.2301864,24.476133 4.1881938,23.055449 l -0.040423,-1.367579 -0.026548,1.510416 c -0.014601,0.83073 0.010953,1.547918 0.056786,1.59375 0.045833,0.04583 0.2567707,0.07567 0.46875,0.06631 0.2789644,-0.01233 0.3102425,-0.03166 0.1132442,-0.07 z m 6.360454,-12.255897 c -0.501446,-0.02379 -1.2889457,-0.02363 -1.7500003,3.5e-4 -0.4610548,0.02398 -0.050781,0.04345 0.9117183,0.04325 0.9625,-2e-4 1.339727,-0.01982 0.838282,-0.0436 z"
   style="fill:none;fill-opacity:1;stroke:#38ffc7;stroke-width:0.125;stroke-opacity:1" /><path
   id="path4752"
   d="M 0.38330254,27.59412 C 0.26126587,27.405563 0.32534959,6.3367384 0.4572715,3.2753191 0.54893134,1.148233 0.55599365,1.1072338 0.887908,0.77531899 L 1.2253564,0.43787018 H 23.59305 c 24.966495,0 22.652924,-0.0898368 22.885729,0.88866122 0.146274,0.6147992 0.310038,11.1142816 0.188416,12.0800886 -0.04978,0.395313 -0.153502,0.71875 -0.230493,0.71875 -0.162315,0 -1.537834,-0.794937 -2.728823,-1.577034 l -0.824296,-0.541299 -0.0885,-3.5204272 C 42.746412,6.5503746 42.674988,4.8081839 42.636367,4.6150749 42.58384,4.3524477 42.472863,4.2434793 42.19598,4.1826658 41.992389,4.1379498 39.754264,4.1425322 37.222368,4.1928483 l -4.603448,0.091485 -0.0062,2.9517681 c -0.0034,1.6234732 0.03335,3.0361436 0.08163,3.1392686 0.103749,0.221611 -0.04478,0.189206 2.028657,0.442589 0.912293,0.111486 1.789423,0.252397 1.949178,0.313135 0.330253,0.125562 0.521619,0.684109 0.335485,0.979192 -0.222842,0.353278 -1.039327,0.404201 -5.862747,0.365648 -3.80977,-0.03045 -4.803516,-0.07238 -4.96875,-0.209619 -0.305459,-0.253716 -0.263601,-0.849156 0.07471,-1.062758 0.295385,-0.186501 2.254635,-0.453187 3.329408,-0.453187 0.474111,0 0.6586,-0.05427 0.74362,-0.21875 0.162992,-0.31532 0.301261,-3.9406094 0.198567,-5.2062559 l -0.08723,-1.0749939 h -4.986732 c -3.876494,0 -4.999074,0.034787 -5.042159,0.15625 -0.03048,0.085937 -0.141625,2.1621906 -0.246981,4.6138957 -0.193691,4.5073271 -0.250845,5.1661981 -0.472643,5.4486041 -0.166646,0.212185 -0.777041,0.197763 -0.959995,-0.02268 -0.149971,-0.180702 -0.298337,-2.538661 -0.480315,-7.6335658 l -0.08929,-2.5 -6.911613,-0.032311 -6.9116135,-0.032311 0.017144,3.1159514 0.017144,3.1159514 0.5819694,0.06839 c 0.3200833,0.03762 1.2850945,0.100572 2.1444695,0.139902 3.4784336,0.159194 5.9398566,0.337838 6.1414596,0.445733 0.11727,0.06276 0.245099,0.269267 0.284063,0.458902 0.06014,0.292719 0.47123,5.303514 0.501776,6.116228 0.01111,0.295846 0.265826,0.350337 3.135201,0.670732 0.6875,0.07677 1.376563,0.220917 1.53125,0.320334 0.354568,0.227879 0.362995,0.687211 0.01834,0.999371 -0.237497,0.215103 -0.516878,0.24222 -2.88986,0.280498 -3.033777,0.04894 -3.437477,0.0028 -3.594757,-0.410883 -0.06118,-0.160908 -0.178558,-1.690696 -0.260847,-3.399526 C 11.878969,14.461005 11.776879,13.0243 11.734391,12.977159 11.691901,12.930019 10.002538,12.851 7.9802493,12.801565 L 4.30336,12.711685 4.387825,18.565687 c 0.046456,3.219701 0.1083339,5.877873 0.1375072,5.907045 0.029173,0.02917 0.8582643,0.10178 1.8424244,0.161346 3.1776053,0.192329 4.7464134,0.351893 4.9261244,0.501039 0.218282,0.181159 0.227125,0.622224 0.0182,0.90794 -0.173265,0.236954 -1.3567637,0.363541 -4.9223895,0.526504 -1.0408438,0.04757 -1.9408438,0.121775 -2,0.164901 -0.059156,0.04312 -0.1939043,0.24716 -0.2994399,0.45341 -0.1621709,0.316934 -0.2879821,0.387821 -0.8125,0.457799 -1.1129885,0.148489 -2.78428679,0.118724 -2.89448986,-0.05155 z M 4.4696754,24.695248 c 0,-0.03032 -0.05625,-0.08989 -0.125,-0.132378 -0.06875,-0.04249 -0.125,-0.01769 -0.125,0.05512 0,0.07281 0.05625,0.132377 0.125,0.132377 0.06875,0 0.125,-0.02481 0.125,-0.05512 z m 4.53125,-12.152663 c -0.085937,-0.03468 -0.2265625,-0.03468 -0.3125,0 -0.085937,0.03468 -0.015625,0.06305 0.15625,0.06305 0.171875,0 0.2421875,-0.02837 0.15625,-0.06305 z m 2.8773786,7.88e-4 c -0.08463,-0.03424 -0.253379,-0.03633 -0.375,-0.0046 -0.121621,0.0317 -0.05238,0.05971 0.153871,0.06226 0.20625,0.0025 0.305758,-0.02338 0.221129,-0.05762 z"
   style="fill:none;fill-opacity:1;stroke:#38ffc7;stroke-width:0.125;stroke-opacity:1" /><path
   id="path4754"
   d="M 0.34784592,27.446209 C 0.09448612,26.779823 0.31790721,1.8833638 0.58332101,1.2065385 0.66017457,1.0105561 0.84885691,0.74236798 1.0026151,0.61056485 1.2762073,0.37603876 1.759102,0.37163742 23.622479,0.4043965 l 22.340304,0.0334737 0.269121,0.26914703 c 0.245978,0.24600115 0.278925,0.46499617 0.383124,2.54653767 0.132912,2.6551322 0.08917,10.6793161 -0.05902,10.8272931 -0.125609,0.125426 -1.07224,-0.364602 -2.548127,-1.319047 l -1.128217,-0.729612 -0.0834,-2.9221592 C 42.750399,7.5028421 42.679013,5.7519327 42.637632,5.2191202 l -0.07524,-0.96875 H 37.657961 32.75353 l -0.08902,1.5625 c -0.04896,0.859375 -0.0492,2.2613782 -5e-4,3.1155627 0.10302,1.8089561 -0.162215,1.5855891 2.24316,1.8891081 1.81592,0.229139 2.1875,0.385483 2.1875,0.920405 0,0.705407 0.04358,0.699924 -5.562667,0.699924 -5.606215,0 -5.562333,0.0055 -5.562333,-0.699924 0,-0.233885 0.09689,-0.418216 0.28125,-0.535044 0.310448,-0.196735 2.021614,-0.452532 3.027234,-0.452532 1.15517,0 1.123028,0.09415 1.17003,-3.4272723 l 0.04101,-3.0727275 h -4.241428 c -2.332785,0 -4.584405,0.035848 -5.003601,0.079663 -0.695072,0.072649 -0.767836,0.1084155 -0.826484,0.40625 -0.03537,0.1796229 -0.125782,1.845337 -0.200916,3.701587 -0.165842,4.0972398 -0.306011,5.7697538 -0.50349,6.0077008 -0.18404,0.221755 -0.791565,0.235748 -0.9687,0.02231 -0.196367,-0.236608 -0.27511,-1.251394 -0.451051,-5.8128546 -0.08821,-2.2868128 -0.188964,-4.1864316 -0.223908,-4.221375 -0.03494,-0.034943 -3.12329,-0.076415 -6.862991,-0.092158 l -6.7994586,-0.028625 0.00684,3.027673 c 0.00376,1.6652201 0.037589,3.0584216 0.075171,3.0960046 0.037583,0.03758 1.5532546,0.150475 3.3681604,0.250873 5.2409762,0.289922 5.3500112,0.301905 5.5465872,0.609583 0.109881,0.171985 0.259113,1.364432 0.42261,3.376925 0.139011,1.711082 0.299724,3.158034 0.357138,3.215447 0.05741,0.05741 1.016427,0.219874 2.131141,0.36102 2.112977,0.267549 2.407019,0.331128 2.559189,0.553357 0.172023,0.251225 0.09625,0.657342 -0.167184,0.895993 -0.238613,0.216169 -0.51691,0.241828 -3.018425,0.2783 -2.961665,0.04318 -3.272668,0.01366 -3.455505,-0.32797 -0.06545,-0.122287 -0.179295,-1.34506 -0.252996,-2.717273 -0.0737,-1.372213 -0.165634,-2.834848 -0.204293,-3.2503 l -0.07029,-0.755369 -2.0865732,-0.02742 c -1.1476149,-0.01508 -2.774502,-0.0624 -3.6153048,-0.105168 -1.3389401,-0.0681 -1.5383697,-0.05264 -1.6063612,0.124548 -0.095351,0.248481 0.1062687,11.407095 0.2079415,11.508487 0.040066,0.03995 0.7713164,0.105182 1.625,0.144947 2.122812,0.09888 4.8808527,0.410671 5.0776727,0.574017 0.209432,0.173813 0.209132,0.784076 -4.75e-4,0.958031 -0.238459,0.197904 -0.838916,0.264818 -4.02093,0.44808 -2.4918331,0.143513 -2.8879287,0.194193 -3,0.383847 -0.4294483,0.726738 -0.4233222,0.724513 -2.1680322,0.787515 l -1.64224599,0.0593 -0.12817051,-0.337114 z"
   style="fill:none;fill-opacity:1;stroke:#38ffc7;stroke-width:0.125;stroke-opacity:1" /><path
   id="path4756"
   d="M 0.30155694,27.480959 C 0.18894342,27.060331 0.21219086,14.22858 0.33812057,7.2991384 0.45223,1.020123 0.47285597,0.83315784 1.0877515,0.50407573 1.2501177,0.41718003 8.5791003,0.37537018 23.648958,0.37537018 c 21.87587,0 22.32552,0.004803 22.561707,0.24098971 0.132544,0.13254434 0.285827,0.51223181 0.340628,0.84375001 0.128311,0.7762219 0.137029,12.4874151 0.0094,12.6155461 -0.131221,0.131729 -1.035838,-0.318181 -2.497257,-1.242006 l -1.21875,-0.770424 -0.0013,-0.562678 c -0.0028,-1.233951 -0.259653,-6.8264939 -0.322985,-7.0314278 -0.06279,-0.2031704 -0.394173,-0.2186284 -4.652928,-0.2170431 -2.521929,9.375e-4 -4.71344,0.03603 -4.870024,0.07798 l -0.284698,0.076274 0.01129,3.0261862 c 0.0083,2.2365129 0.05002,3.0302707 0.159697,3.0418377 1.26191,0.133082 3.716689,0.588549 3.937005,0.730483 0.220013,0.141739 0.279424,0.279959 0.25,0.581627 -0.06955,0.713043 -0.13425,0.720804 -5.706006,0.684374 l -5.042404,-0.03297 -0.23884,-0.295098 c -0.305885,-0.377936 -0.300522,-0.467083 0.04914,-0.816741 0.306955,-0.306955 1.624894,-0.575661 2.823478,-0.575661 0.330684,0 0.769934,-0.05881 0.976114,-0.130681 0.362525,-0.126377 0.376497,-0.160342 0.424225,-1.0312499 0.02715,-0.4953129 0.04966,-1.8849439 0.05003,-3.0880689 l 6.25e-4,-2.1875 -3.3125,1.875e-4 c -1.821875,1.015e-4 -4.051113,0.019932 -4.953861,0.044067 l -1.641363,0.043882 -0.07623,0.8309335 c -0.04187,0.4570106 -0.135523,2.1809306 -0.20806,3.8309306 -0.16363,3.7220692 -0.29339,5.1315482 -0.494758,5.3741812 -0.189348,0.22815 -0.796711,0.248205 -0.971241,0.03207 -0.0694,-0.08594 -0.161394,-0.38125 -0.204441,-0.65625 -0.06441,-0.411487 -0.446939,-8.2069878 -0.449299,-9.1562502 l -6.99e-4,-0.28125 h -6.8125 -6.8124996 v 3.0039231 c 0,2.2918589 0.037038,3.0163441 0.15625,3.0563231 0.085937,0.02882 1.73125,0.140578 3.65625,0.248353 4.6829366,0.262184 4.9147526,0.289985 5.1258026,0.614738 0.110375,0.169838 0.267697,1.357695 0.440592,3.326663 0.194805,2.218495 0.317138,3.10052 0.443885,3.200456 0.09623,0.07588 1.083574,0.261045 2.194093,0.411485 1.11052,0.150442 2.123526,0.329403 2.251127,0.397692 0.237082,0.126882 0.31332,0.668957 0.133793,0.951297 -0.214425,0.337223 -0.870479,0.41407 -3.53493,0.41407 -2.575196,0 -2.757059,-0.0152 -2.991863,-0.25 -0.1375,-0.1375 -0.25,-0.301886 -0.25,-0.365302 0,-0.588463 -0.398273,-6.324638 -0.44218,-6.368544 -0.03173,-0.03173 -1.652333,-0.08394 -3.6013362,-0.116028 -3.3921766,-0.05584 -3.5461448,-0.04827 -3.6022004,0.17702 -0.032207,0.129445 -0.01854,2.703362 0.030372,5.719814 0.068162,4.203596 0.1257874,5.50724 0.2467445,5.581995 0.086797,0.05364 0.922428,0.135263 1.8569569,0.181375 2.1375128,0.10547 4.4993912,0.39889 4.7262272,0.587148 0.281122,0.23331 0.148271,0.889627 -0.214584,1.060096 -0.171875,0.08075 -1.2687497,0.207281 -2.4374997,0.281189 -4.280216,0.270666 -4.0489791,0.232548 -4.5180866,0.74476 L 3.723314,27.68787 2.0516694,27.730959 c -1.66406811,0.04289 -1.67200026,0.04176 -1.75011246,-0.25 z"
   style="fill:none;fill-opacity:1;stroke:#38ffc7;stroke-width:0.125;stroke-opacity:1" /><path
   id="path4758"
   d="M 0.26534199,27.415304 C 0.14779877,26.946974 0.32431729,3.2994078 0.45499554,2.0080834 0.54819682,1.0870954 0.60435054,0.91664183 0.8976766,0.66433336 L 1.2336163,0.37537018 H 23.587798 c 21.314561,0 22.367065,0.010432 22.631194,0.2243107 0.241092,0.1952248 0.290687,0.40188312 0.382483,1.59375002 0.121029,1.5714318 0.156613,11.4363901 0.04233,11.7342151 -0.04173,0.108749 -0.170265,0.197724 -0.285634,0.197724 -0.181634,0 -2.500378,-1.337239 -3.25121,-1.875 C 42.858431,12.072368 42.83881,11.895076 42.719596,8.7503702 42.650526,6.9284952 42.563151,5.2024937 42.52542,4.9148113 l -0.0686,-0.523059 -0.71006,-0.088716 c -0.850302,-0.1062384 -8.693787,0.0061 -8.889935,0.127329 -0.155145,0.095884 -0.183539,4.6646896 -0.03422,5.5065646 l 0.08851,0.4990601 1.806437,0.285606 c 2.07007,0.327287 2.410156,0.481181 2.353225,1.064869 -0.06823,0.699515 -0.151988,0.710031 -5.671277,0.712062 -4.909945,0.0018 -5.013158,-0.0033 -5.288428,-0.259715 -0.346403,-0.322722 -0.305702,-0.70034 0.108608,-1.007664 0.293089,-0.217406 1.111208,-0.36727 3.001077,-0.549743 1.124402,-0.108564 1.056523,0.0956 1.099016,-3.3055328 l 0.03759,-3.0089404 -4.871046,0.035469 c -2.679075,0.019508 -4.898517,0.063594 -4.932094,0.097969 -0.03358,0.034375 -0.124307,1.24375 -0.201622,2.6875 -0.243413,4.5454202 -0.389005,6.6293182 -0.489629,7.0081642 -0.08532,0.321232 -0.16148,0.371567 -0.612609,0.404895 -0.500587,0.03698 -0.518923,0.02459 -0.647596,-0.4375 -0.07283,-0.261558 -0.227611,-2.537848 -0.343954,-5.0584238 L 18.047279,4.5221409 17.680352,4.4487556 c -0.201809,-0.040362 -3.26051,-0.073385 -6.797113,-0.073385 H 4.4530523 l 0.039561,2.9273219 c 0.021759,1.6100271 0.084113,2.9717655 0.1385649,3.0260865 0.054452,0.05432 1.7138268,0.197613 3.6875,0.318428 4.7102348,0.288328 4.8656698,0.308042 5.0865398,0.645133 0.115825,0.17677 0.271314,1.243086 0.440641,3.021845 0.143914,1.511776 0.303673,2.914114 0.355023,3.116305 0.112413,0.442641 0.209752,0.473741 2.555945,0.816626 0.950361,0.138892 1.837036,0.310922 1.970389,0.38229 0.30174,0.161487 0.331042,0.891835 0.04529,1.128984 -0.248057,0.205869 -3.0909,0.360738 -4.956539,0.270015 -1.02345,-0.04977 -1.385101,-0.113727 -1.526499,-0.26997 -0.137464,-0.151896 -0.234924,-0.910499 -0.377548,-2.938724 -0.105738,-1.503685 -0.193112,-2.907868 -0.194165,-3.120407 -10e-4,-0.212539 -0.04495,-0.454143 -0.09755,-0.536898 -0.06889,-0.108386 -1.087822,-0.172256 -3.6435823,-0.228391 l -3.5479447,-0.07793 0.096932,5.540893 c 0.053312,3.04749 0.1027139,5.63475 0.1097811,5.749465 0.01508,0.244777 0.3816821,0.308409 2.396778,0.416012 1.6985385,0.0907 3.4897189,0.29547 4.0380839,0.461638 0.380335,0.115251 0.410064,0.161319 0.375,0.581087 -0.02863,0.342702 -0.115683,0.492783 -0.350584,0.604387 -0.171875,0.08166 -1.5781249,0.237516 -3.1249999,0.346345 -1.546875,0.10883 -2.9586722,0.227827 -3.1373272,0.264441 -0.178655,0.03661 -0.5131269,0.260844 -0.7432709,0.498292 L 3.6706337,27.75037 H 2.010036 0.34943842 Z"
   style="fill:none;fill-opacity:1;stroke:#38ffc7;stroke-width:0.125;stroke-opacity:1" /><path
   id="path4760"
   d="M 0.42000377,27.717723 C 0.18888654,27.543839 0.18498471,27.22049 0.26715617,15.051076 0.3135344,8.1825632 0.39396054,2.2138979 0.44588092,1.7873763 0.51378105,1.2295825 0.62421429,0.92254029 0.83926777,0.69362635 L 1.1382539,0.37537018 H 23.540117 c 21.433255,0 22.413946,0.009784 22.68132,0.22629105 0.420433,0.34044642 0.50808,1.85084297 0.469228,8.08620897 -0.03303,5.3016498 -0.03697,5.3754978 -0.288402,5.4114928 -0.145529,0.02083 -0.950094,-0.381449 -1.875,-0.9375 l -1.620088,-0.973993 -0.08678,-0.875 C 42.772665,10.83162 42.67783,9.1224081 42.609646,7.5146212 42.537646,5.8168128 42.430801,4.5364977 42.354775,4.4604709 42.17764,4.2833363 33.088745,4.3312842 32.909783,4.5102969 c -0.194681,0.1947379 -0.166491,5.5636921 0.03025,5.7604291 0.08442,0.08442 0.922142,0.282562 1.861607,0.44032 1.973241,0.331353 2.293038,0.483715 2.293038,1.092478 0,0.361386 -0.05685,0.442209 -0.393652,0.559618 -0.260344,0.09076 -2.080566,0.137228 -5.375,0.137228 -4.814681,0 -4.989713,-0.0084 -5.231348,-0.25 -0.322581,-0.322582 -0.317553,-0.677325 0.01398,-0.986194 0.261389,-0.243522 1.069634,-0.417391 2.673521,-0.575129 1.098117,-0.107996 1.394234,-0.181592 1.40939,-0.350283 0.0075,-0.08299 0.05402,-1.4679123 0.103484,-3.0776009 l 0.08993,-2.9267067 -4.857106,0.08658 c -2.671408,0.047619 -4.885501,0.1149749 -4.920206,0.1496798 -0.0347,0.034705 -0.132933,1.228387 -0.218285,2.6526267 -0.33762,5.6337661 -0.425365,6.7756501 -0.544795,7.0897751 -0.110528,0.290708 -0.181904,0.322428 -0.648524,0.288207 -0.471691,-0.03459 -0.534569,-0.07824 -0.62636,-0.434792 -0.05612,-0.217985 -0.205095,-2.454312 -0.331059,-4.9696144 -0.125964,-2.5153022 -0.257077,-4.6013299 -0.291365,-4.6356173 -0.03429,-0.034287 -3.066711,-0.076086 -6.73872,-0.092886 l -6.6763786,-0.030545 0.039009,2.875 c 0.021455,1.58125 0.079364,2.9160337 0.1286865,2.9661867 0.049323,0.05015 1.8317683,0.208628 3.9609907,0.352168 4.1113354,0.277163 4.7552654,0.372012 4.8587934,0.715683 0.03578,0.118779 0.209944,1.565962 0.387027,3.215962 0.25595,2.384858 0.364395,3.032039 0.528872,3.15625 0.113798,0.08594 0.23834,0.159386 0.276763,0.16322 0.03842,0.0038 0.968747,0.15852 2.067388,0.34375 1.818514,0.306598 2.010795,0.363605 2.145538,0.636103 0.085,0.171905 0.107369,0.411352 0.05254,0.5625 -0.1929,0.531797 -0.637841,0.612757 -3.439645,0.625867 -2.783576,0.01302 -3.239507,-0.04003 -3.375818,-0.392861 -0.04671,-0.120906 -0.166438,-1.429204 -0.26606,-2.907329 -0.09962,-1.478125 -0.209697,-2.913334 -0.24461,-3.189354 l -0.06348,-0.501852 -1.5904996,-0.0291 c -0.8747794,-0.01601 -2.406129,-0.06028 -3.403004,-0.09838 -1.0317451,-0.03944 -1.8853427,-0.01951 -1.9816025,0.04627 -0.1407175,0.09616 -0.1502137,1.041386 -0.056574,5.631162 0.066993,3.283655 0.162202,5.56528 0.2352816,5.638359 0.067514,0.06752 1.2460973,0.209685 2.6190738,0.315935 1.3729763,0.10625 2.8338207,0.262095 3.2463207,0.346321 0.742182,0.151543 0.7504,0.157947 0.788347,0.614358 0.06116,0.735612 -0.159727,0.809014 -3.100847,1.030406 -3.6862777,0.277484 -3.6648516,0.27355 -4.1904907,0.769293 -0.427847,0.403511 -0.5008422,0.426641 -1.3496595,0.427668 -0.4935424,6.25e-4 -1.1785998,0.0334 -1.5223498,0.0729 -0.44083196,0.05065 -0.69488708,0.01923 -0.86217163,-0.10663 z"
   style="fill:#38ffc7;fill-opacity:1;stroke:#38ffc7;stroke-width:0.125;stroke-opacity:1" /><path
   id="path4762"
   d="M 0.09081148,26.933513 C 0.07005032,26.672215 0.05405606,21.337426 0.05526868,15.078426 0.05725272,4.8376704 0.06492788,3.6005182 0.13193651,2.7204145 0.17289121,2.1825079 0.22868581,1.6256613 0.25592452,1.4829776 0.28316322,1.3402938 0.30578822,1.1937215 0.30620222,1.1572613 0.30798422,1.0003012 0.8311547,0.3957972 0.90075752,0.47027429 c 0.0185942,0.0198964 0.008709,0.0451335 -0.021968,0.0560824 C 0.78235107,0.56077707 0.56839987,0.91083657 0.47744464,1.1830232 0.35416601,1.5519386 0.30137208,2.0692302 0.25229938,3.3890671 0.21171768,4.4805342 0.15043642,16.807126 0.1496399,24.038795 c -2.0413e-4,1.853393 -0.005031,3.369806 -0.010726,3.369806 -0.005695,0 -0.0273413,-0.21379 -0.04810242,-0.475088 z"
   style="fill:#38ffc7;fill-opacity:1;stroke:#38ffc7;stroke-width:0.04419417;stroke-opacity:1" /><path
   id="path4766"
   d="m 46.316084,14.362388 c -0.365352,-0.24334 -0.659137,-0.447575 -0.652856,-0.453856 0.0063,-0.0063 0.149068,0.05513 0.317305,0.136463 0.248237,0.120012 0.340355,0.14877 0.488793,0.152592 0.180598,0.0047 0.18291,0.0036 0.18291,-0.08275 0,-0.0481 0.01406,-0.09615 0.03125,-0.106773 0.01969,-0.01217 0.03125,0.0609 0.03125,0.197455 0,0.154559 0.01345,0.227932 0.04687,0.25567 0.04164,0.03456 0.04627,-0.555806 0.04148,-5.2852359 -0.003,-2.9282762 -0.01576,-5.2327325 -0.02843,-5.1210137 -0.01332,0.1174415 -0.01913,-0.1066535 -0.01378,-0.53125 0.0055,-0.4392565 -0.0013,-0.6904212 -0.01689,-0.625 -0.01703,0.071238 -0.02187,-0.01555 -0.01389,-0.2489027 0.0086,-0.2500316 0.0026,-0.3444469 -0.01971,-0.3125 -0.0224,0.032076 -0.02647,-0.022035 -0.01359,-0.1807848 0.01272,-0.1568174 0.0076,-0.2265625 -0.01648,-0.2265625 -0.0213,0 -0.02745,-0.02951 -0.01581,-0.075877 0.01604,-0.063918 -0.08985,-0.7283954 -0.157236,-0.98662343 l -0.02039,-0.078125 0.06273,0.078125 c 0.09208,0.11467147 0.259044,0.41993693 0.257762,0.47127683 -6.13e-4,0.024541 -0.02251,0.00946 -0.04903,-0.033777 -0.03276,-0.053407 -0.04135,-0.05835 -0.02714,-0.015625 0.09183,0.2760622 0.165677,1.07034 0.20192,2.171875 0.02463,0.7485234 0.02538,0.7276659 0.01232,-0.34375 -0.0076,-0.6273438 -0.02034,-1.2179688 -0.0282,-1.3125 -0.01296,-0.1558446 -0.01092,-0.1631312 0.02193,-0.078125 0.02689,0.069588 0.03937,1.7125967 0.04842,6.375 0.0067,3.4546872 0.0078,6.3761452 0.0025,6.4921282 l -0.0097,0.210878 z"
   style="fill:#38ffc7;fill-opacity:1;stroke:#38ffc7;stroke-width:0.03125;stroke-opacity:1" /><path
   id="path4772"
   d="m 26.690085,12.740102 c -0.445253,-0.0342 -0.593387,-0.08895 -0.753082,-0.278334 -0.176446,-0.209255 -0.258944,-0.41073 -0.268949,-0.656827 -0.0078,-0.191532 -0.007,-0.194207 0.01412,-0.04687 0.01942,0.13558 0.02315,0.141781 0.02821,0.04687 0.0055,-0.103807 0.03051,-0.232257 0.07895,-0.40625 l 0.02175,-0.07813 -0.04707,0.07813 c -0.06177,0.102522 -0.0631,0.02361 -0.0016,-0.0953 0.05154,-0.09966 0.09727,-0.126856 0.06308,-0.03751 -0.01151,0.03008 0.0308,-0.0057 0.09402,-0.0795 0.138375,-0.161538 0.398948,-0.298863 0.725847,-0.382531 l 0.241253,-0.06175 -0.219,0.01108 c -0.125662,0.0064 -0.263416,0.03405 -0.323216,0.06497 -0.05732,0.02964 -0.111249,0.04686 -0.119843,0.03827 -0.0086,-0.0086 0.0309,-0.03969 0.08777,-0.06909 0.115745,-0.05985 0.504899,-0.09223 1.418043,-0.117977 0.437215,-0.01233 0.513778,-0.0092 0.34375,0.01415 -0.974805,0.133714 -1.58862,0.273967 -1.870541,0.427408 -0.51351,0.279487 -0.556914,0.908925 -0.0873,1.266067 l 0.181354,0.137921 0.950745,0.03582 c 1.163753,0.04385 7.494605,0.04666 8.412723,0.0037 0.941895,-0.04403 1.303909,-0.137816 1.441521,-0.37344 0.132104,-0.226194 0.06348,-0.798621 -0.115223,-0.961132 C 36.84112,11.086824 36.2222,10.894757 35.449121,10.74248 l -0.3125,-0.06155 0.625,0.01511 c 0.34375,0.0083 0.674218,0.02804 0.734375,0.04386 0.08238,0.02166 0.04383,0.02542 -0.15625,0.01523 l -0.265625,-0.01353 0.265625,0.06005 c 0.301569,0.06818 0.509836,0.138908 0.624488,0.212088 l 0.07864,0.05019 -0.07576,-0.08263 c -0.04167,-0.04545 -0.06044,-0.08263 -0.04172,-0.08263 0.06591,0 0.288005,0.289648 0.350811,0.457513 0.08561,0.228803 0.08401,0.734388 -0.0022,0.681138 -0.01504,-0.0093 -0.01949,0.0036 -0.0099,0.02857 0.019,0.04953 -0.105195,0.318663 -0.133837,0.290021 -0.0097,-0.0097 -0.07185,0.02891 -0.138208,0.0857 -0.214295,0.183429 -0.516906,0.233962 -1.605493,0.268101 l -0.75,0.02352 1,-0.0032 c 0.55,-0.0018 1.028125,-0.01492 1.0625,-0.02921 0.06157,-0.0256 0.0616,-0.02526 0.0018,0.02344 -0.05478,0.04463 -0.527325,0.04899 -4.875,0.04498 -2.647888,-0.0024 -4.959027,-0.01556 -5.135866,-0.02914 z m 1.259026,-0.01891 c -0.84227,-0.02202 -1.583035,-0.10039 -1.84375,-0.19505 l -0.09375,-0.03404 0.07327,0.06226 c 0.15502,0.131729 0.590163,0.180389 1.58298,0.177015 0.326562,-0.0011 0.453125,-0.0057 0.28125,-0.01019 z"
   style="fill:#38ffc7;fill-opacity:1;stroke:#38ffc7;stroke-width:0.03125;stroke-opacity:1" /><path
   id="path4774"
   d="M 18.699763,0.29793893 C 6.4318005,0.29253264 6.0768016,0.29122579 6.0768016,0.25147053 c 0,-0.0376178 0.02975,-0.0420439 0.3701262,-0.0550664 0.2035694,-0.007788 6.3089942,-0.0207807 13.5676112,-0.0288717 l 13.197485,-0.014711 v 0.0808451 0.0808451 l -0.94465,-0.005505 c -0.519558,-0.003028 -6.624983,-0.008008 -13.567611,-0.0110677 z"
   style="fill:#38ffc7;fill-opacity:1;stroke:#38ffc7;stroke-width:0.02209709;stroke-opacity:1" /><path
   id="path4776"
   d="M 18.904161,14.657069 C 18.786946,14.637154 18.734619,14.606324 18.66654,14.517068 18.594917,14.423165 18.5501,14.316149 18.519496,14.16595 18.45281,13.838665 18.349636,12.29406 18.17508,9.0097154 18.023908,6.165355 17.927107,4.6444419 17.895216,4.6125507 17.859069,4.5764034 12.1054,4.51332 8.8168404,4.513015 7.9114123,4.5129313 6.9245011,4.50632 6.6237045,4.4983236 L 6.0768016,4.4837846 V 2.3991482 0.31451171 l 9.1205724,-0.003715 c 5.016315,-0.002043 9.08577,-0.006969 9.043233,-0.010946 C 24.19807,0.2958738 20.111214,0.28852146 15.158704,0.28351256 10.206195,0.27850366 6.13674,0.2728677 6.1154715,0.2709882 6.0777703,0.26765652 6.0603484,0.22955712 6.0933744,0.22266464 6.23761,0.19256291 6.8593659,0.19043837 21.207782,0.17101868 l 12.004242,-0.016247 V 2.332511 4.5102502 l -0.104961,0.013516 c -0.190057,0.024474 -0.182349,0.00518 -0.23015,0.5760816 -0.03993,0.4768903 -0.04054,3.5426735 -8.17e-4,4.186081 0.02792,0.4525075 0.06114,0.8046542 0.08478,0.8988392 0.0089,0.0353 0.04581,0.06232 0.126321,0.09235 l 0.113793,0.04245 0.0057,1.118263 0.0057,1.118263 -2.226483,0.0057 -2.226485,0.0057 2.226282,0.0054 2.22627,0.0054 v 0.09944 0.09944 l -2.193135,-0.0018 c -2.962658,-0.0025 -4.490034,-0.02637 -4.67423,-0.0732 -0.198873,-0.05056 -0.295641,-0.106577 -0.410095,-0.237415 -0.177517,-0.202928 -0.285027,-0.493375 -0.276962,-0.748232 l 0.0024,-0.07734 0.01601,0.06629 c 0.01827,0.07566 0.0278,0.05831 0.06462,-0.117695 0.03027,-0.144688 0.03062,-0.16483 0.0025,-0.14747 -0.0367,0.02268 -0.02485,-0.06196 0.02016,-0.143976 0.02324,-0.04235 0.05382,-0.07426 0.06795,-0.07092 0.01413,0.0033 0.07676,-0.03983 0.139165,-0.09594 0.134101,-0.120568 0.310107,-0.21398 0.56822,-0.301571 l 0.187825,-0.06374 -0.143631,0.01087 c -0.079,0.006 -0.181845,0.02688 -0.228551,0.04644 -0.106789,0.04473 -0.154794,0.0317 -0.07524,-0.02042 0.03295,-0.02159 0.152069,-0.05265 0.264714,-0.06902 0.313489,-0.04557 1.636986,-0.09782 1.602432,-0.06326 -0.0071,0.0071 -0.09576,0.02668 -0.197033,0.04351 -0.247922,0.04121 -0.104944,0.02789 0.843389,-0.07861 0.948738,-0.106544 1.184545,-0.15056 1.251232,-0.233555 0.103523,-0.128842 0.103182,-0.124545 0.163684,-2.0644489 0.06621,-2.1228568 0.08711,-2.9483978 0.08741,-3.4526699 l 2.76e-4,-0.4585145 -0.591097,1.768e-4 C 27.356738,4.4253617 20.976,4.55963 20.702335,4.6140821 c -0.06827,0.013583 -0.06311,-0.017228 -0.129067,0.7716288 -0.05705,0.6823642 -0.08712,1.1341816 -0.222075,3.3366601 -0.239334,3.906028 -0.330416,5.086446 -0.423635,5.490296 -0.03499,0.151579 -0.126751,0.329365 -0.196917,0.381519 -0.09457,0.0703 -0.569923,0.106412 -0.826605,0.0628 z m 8.452135,-1.946091 c -0.01823,-0.01178 -0.08286,-0.02167 -0.143631,-0.02197 -0.230446,-0.0011 -0.914817,-0.09396 -1.080426,-0.146523 -0.03937,-0.0125 -0.04207,-0.0097 -0.01835,0.01887 0.06213,0.07486 0.356149,0.128208 0.822567,0.14924 0.188377,0.0085 0.367364,0.01688 0.397747,0.01863 0.0432,0.0025 0.04802,-0.0015 0.0221,-0.01824 z m 0.192857,-0.170807 c -0.04585,-0.0048 -0.115452,-0.0047 -0.154679,1.77e-4 -0.03923,0.0049 -0.0017,0.0088 0.08336,0.0087 0.08507,-8.8e-5 0.117169,-0.0041 0.07132,-0.0089 z m -0.640815,-0.0221 c -0.04585,-0.0048 -0.115453,-0.0047 -0.15468,1.77e-4 -0.03923,0.0049 -0.0017,0.0088 0.08336,0.0087 0.08507,-8.8e-5 0.117169,-0.0041 0.07132,-0.0089 z m -0.413828,-0.02672 c -0.177298,-0.0117 -0.194637,-0.01751 -0.309359,-0.103599 -0.137278,-0.103018 -0.191196,-0.158533 -0.273893,-0.282008 -0.03166,-0.04727 -0.05756,-0.07561 -0.05756,-0.06299 0,0.04829 0.174985,0.252745 0.306994,0.358689 l 0.137875,0.110653 0.191886,-0.0042 0.191886,-0.0042 z m -0.476082,-1.216166 0.0653,-0.07786 -0.06547,0.05978 c -0.03601,0.03288 -0.08323,0.09254 -0.10493,0.132582 -0.038,0.07011 -0.03799,0.07078 1.77e-4,0.01809 0.0218,-0.0301 0.06902,-0.08976 0.10493,-0.132583 z M 27.4387,10.797278 c -0.0073,-0.0073 -0.0264,-0.0081 -0.04235,-0.0017 -0.01763,0.0071 -0.01239,0.01229 0.01335,0.01335 0.02329,9.59e-4 0.03635,-0.0043 0.029,-0.01161 z m 0.144512,-0.02324 c -0.01496,-0.0061 -0.04479,-0.0064 -0.06629,-8.2e-4 -0.0215,0.0056 -0.0093,0.01056 0.0272,0.011 0.03646,4.51e-4 0.05405,-0.0041 0.03909,-0.01019 z m 0.15468,-0.0221 c -0.01496,-0.0061 -0.04479,-0.0064 -0.06629,-8.19e-4 -0.0215,0.0056 -0.0093,0.01056 0.0272,0.011 0.03646,4.51e-4 0.05405,-0.0041 0.03909,-0.01019 z M 31.273924,0.29817494 c -0.07545,-0.004302 -0.20472,-0.004333 -0.287262,-7.026e-5 -0.08254,0.004263 -0.02081,0.007783 0.137188,0.007821 0.157994,3.867e-5 0.225527,-0.003449 0.150074,-0.007751 z m 0.971353,1.5711e-4 c -0.05165,-0.004652 -0.136173,-0.004652 -0.187825,0 -0.05165,0.004652 -0.0094,0.008459 0.09391,0.008459 0.103304,0 0.145565,-0.003806 0.09391,-0.008459 z m 0.309779,0.001685 c -0.01496,-0.006053 -0.04479,-0.006421 -0.06629,-8.1878e-4 -0.0215,0.005603 -0.0093,0.0105549 0.0272,0.0110053 0.03646,4.5034e-4 0.05405,-0.004134 0.03909,-0.0101865 z"
   style="fill:#38ffc7;fill-opacity:1;stroke:#38ffc7;stroke-width:0.02209709;stroke-opacity:1" /><path
   id="path4778"
   d="m 18.848918,14.656495 c -0.0999,-0.02512 -0.228249,-0.168727 -0.284025,-0.317801 -0.1103,-0.294805 -0.156212,-0.940566 -0.456637,-6.4227844 C 17.992252,5.7990281 17.914936,4.6543796 17.885998,4.6254203 17.848629,4.5880225 13.995215,4.5408185 9.5791899,4.5236625 7.8777142,4.5170524 6.3936186,4.5060401 6.2811997,4.4991904 L 6.0768016,4.4867367 V 2.4006243 0.31451171 l 4.5243784,-0.004979 4.524379,-0.004979 -4.511494,-0.0115937 c -2.4813211,-0.006377 -4.5191145,-0.0192172 -4.5284294,-0.0285348 -0.070492,-0.0705126 -0.015637,-0.071312 5.9308594,-0.0864268 3.241313,-0.008239 9.336299,-0.0183553 13.544413,-0.0224812 l 7.651116,-0.007502 V 2.3281227 c 0,2.3970588 0.01121,2.2069326 -0.130167,2.2069326 -0.03314,0 -0.07704,0.01243 -0.09754,0.027621 -0.09705,0.071913 -0.125629,0.6583372 -0.125713,2.5798349 0,1.5939082 0.01881,2.2785449 0.07677,2.7838191 0.03458,0.3014857 0.04041,0.3122827 0.193358,0.3581067 l 0.08329,0.02495 v 1.236994 1.236994 l -3.253796,-0.01317 c -1.994906,-0.0081 -3.321933,-0.02188 -3.429908,-0.03567 -0.09686,-0.01237 -0.229664,-0.03934 -0.295117,-0.05993 -0.227483,-0.07155 -0.454014,-0.342796 -0.537383,-0.643453 -0.04068,-0.146713 -0.05726,-0.43898 -0.01972,-0.347686 0.01449,0.03523 0.0206,0.03747 0.03016,0.01105 0.02915,-0.08062 0.05206,-0.243068 0.03428,-0.243068 -0.03445,0 -0.0205,-0.09739 0.02453,-0.171253 0.02408,-0.0395 0.05706,-0.07182 0.07328,-0.07182 0.01622,0 0.06857,-0.03345 0.116334,-0.07433 0.14059,-0.120331 0.289204,-0.205787 0.469878,-0.27019 0.09317,-0.03321 0.177422,-0.0673 0.187238,-0.07576 0.02545,-0.02193 -0.225421,0.01972 -0.273376,0.04538 -0.05,0.02676 -0.109073,0.02765 -0.109073,0.0016 0,-0.03423 0.163731,-0.08692 0.344706,-0.110933 0.423195,-0.05615 1.626347,-0.09184 1.555643,-0.04615 -0.04803,0.03104 -0.04868,0.03109 0.700401,-0.05593 1.003373,-0.116556 1.159734,-0.149421 1.231422,-0.258828 0.05691,-0.08685 0.07617,-0.259511 0.10048,-0.9005867 0.0329,-0.8677769 0.106711,-3.4140165 0.124424,-4.2923591 l 0.01504,-0.7457767 -0.218573,3.138e-4 c -2.260463,0.00325 -8.776679,0.1361339 -9.293045,0.1895181 -0.10482,0.010837 -0.127127,0.020805 -0.137305,0.061361 -0.03758,0.1497486 -0.126236,1.3358884 -0.257029,3.4390202 -0.32051,5.1537564 -0.381236,5.8984694 -0.508764,6.2393184 -0.100931,0.269763 -0.171794,0.305233 -0.629032,0.314859 -0.182301,0.0038 -0.366259,-0.0018 -0.408796,-0.01247 z m 8.34165,-1.959994 c -0.287906,-0.02296 -0.604885,-0.06142 -0.81496,-0.09889 -0.13224,-0.02359 -0.24475,-0.03858 -0.250024,-0.0333 -0.0172,0.0172 0.199555,0.0787 0.357877,0.10154 0.211459,0.03051 0.316729,0.03739 0.574525,0.03756 0.121534,8.9e-5 0.181196,-0.003 0.132582,-0.0069 z m -0.82733,-0.200544 c -0.02966,-0.0056 -0.08932,-0.03528 -0.132582,-0.06602 l -0.07865,-0.05589 0.07734,0.06843 c 0.04608,0.04078 0.09967,0.06746 0.132582,0.06602 l 0.05524,-0.0024 z"
   style="fill:#38ffc7;fill-opacity:1;stroke:#38ffc7;stroke-width:0.02209709;stroke-opacity:1" /><path
   id="path4780"
   d="m 6.0768016,0.14804117 c 0,-0.0284418 1.6593696,-0.0319467 13.5731354,-0.0286688 l 13.573136,0.003734 -11.346854,0.0158144 c -6.24077,0.008698 -12.348681,0.0215989 -13.5731359,0.0286688 -1.9473601,0.0112439 -2.2262815,0.008795 -2.2262815,-0.0195484 z"
   style="fill:#38ffc7;fill-opacity:1;stroke:#38ffc7;stroke-width:0.02209709;stroke-opacity:1" /><path
   id="path4782"
   d="m 16.313277,0.09906664 c 1.078614,-0.0031705 2.843619,-0.0031705 3.922233,0 1.078614,0.0031705 0.196112,0.0057646 -1.961116,0.0057646 -2.157228,0 -3.039731,-0.002594 -1.961117,-0.0057646 z"
   style="fill:#38ffc7;fill-opacity:1;stroke:#38ffc7;stroke-width:0.02209709;stroke-opacity:1" /><path
   id="path4784"
   d="M 18.826821,14.654142 C 18.69577,14.598982 18.572202,14.420393 18.52199,14.213579 18.482206,14.049715 18.432512,13.521658 18.374344,12.644686 18.323771,11.882207 18.282498,11.16649 18.097826,7.8496184 17.976398,5.6686602 17.908133,4.6698792 17.878388,4.6390568 17.836987,4.596156 15.474393,4.5639846 10.208957,4.534622 7.9909618,4.5222534 6.1538652,4.507158 6.1265201,4.5010764 L 6.0768016,4.4900192 V 2.4022655 0.31451171 l 1.320301,-0.004514 1.3203009,-0.004514 -1.3074262,-0.012059 C 6.6908929,0.28679264 6.0957618,0.27456988 6.0874637,0.26626341 6.0494947,0.22825617 6.1145519,0.203798 6.2604067,0.20124573 L 6.4193065,0.19846518 6.2425298,0.17278457 C 6.0713879,0.14792253 6.0844184,0.1465228 6.6513259,0.12887186 7.3681407,0.10655348 31.10626,0.10563202 32.333771,0.12787492 l 0.878468,0.0159181 -0.0056,2.18949618 -0.0056,2.1894961 -0.09823,0.016769 c -0.05403,0.00922 -0.110675,0.029385 -0.125885,0.044805 -0.05018,0.050883 -0.07472,0.3064563 -0.09922,1.0334536 -0.0273,0.8100838 -0.01123,3.3345277 0.02447,3.8448931 0.02755,0.3937166 0.06286,0.680454 0.09005,0.73126 0.01127,0.02106 0.06535,0.05542 0.120182,0.07636 l 0.09969,0.03807 v 1.24074 1.24074 l -0.215446,-0.006 c -0.118496,-0.0033 -1.59762,-0.01042 -3.286942,-0.01583 -3.180687,-0.01017 -3.272059,-0.01286 -3.513287,-0.103109 -0.209631,-0.07843 -0.419803,-0.343066 -0.506275,-0.637461 -0.03769,-0.128313 -0.04947,-0.411737 -0.01484,-0.357033 0.01459,0.02305 0.026,0.0086 0.04373,-0.05524 0.02956,-0.106479 0.03037,-0.148763 0.0034,-0.175915 -0.04173,-0.04194 0.05014,-0.186892 0.175568,-0.277005 0.24079,-0.172998 0.321872,-0.220911 0.490564,-0.289883 0.187741,-0.07676 0.209435,-0.099 0.05926,-0.06073 -0.17681,0.04504 -0.218363,0.04931 -0.218363,0.02244 0,-0.06808 0.271181,-0.120414 0.806544,-0.155655 0.399873,-0.02632 1.115903,-0.02943 1.115903,-0.0048 0,0.02106 -0.0042,0.02145 0.800796,-0.07426 0.637169,-0.07575 0.922739,-0.123067 1.025559,-0.169914 0.07954,-0.03624 0.117649,-0.126379 0.140564,-0.33249 0.03343,-0.3006448 0.143666,-3.8366326 0.15859,-5.0868 l 0.0069,-0.5745243 -1.06066,0.00653 c -3.004778,0.018497 -8.386949,0.1407096 -8.524699,0.1935694 -0.01847,0.00709 -0.03942,0.044513 -0.04656,0.08317 -0.03533,0.1912631 -0.124137,1.3962497 -0.245383,3.3296052 -0.36435,5.8097887 -0.400332,6.1969627 -0.601189,6.4689457 -0.09612,0.13016 -0.15419,0.146093 -0.559002,0.153386 -0.220925,0.004 -0.386371,-0.0026 -0.419844,-0.01668 z m 8.021242,-1.981017 c -0.04254,-0.0048 -0.205751,-0.02807 -0.362699,-0.05177 -0.156948,-0.0237 -0.289503,-0.03894 -0.294566,-0.03388 -0.0096,0.0096 0.265828,0.07213 0.381052,0.08651 0.03646,0.0046 0.130925,0.0082 0.209922,0.008 0.079,-1.32e-4 0.108828,-0.0041 0.06629,-0.0089 z M 8.5685058,0.16674672 c -0.021127,-0.005531 -0.060901,-0.005731 -0.088388,-4.4594e-4 -0.027487,0.005285 -0.010201,0.009811 0.038412,0.0100559 0.048614,2.4526e-4 0.071103,-0.004079 0.049976,-0.00961 z m 0.2983569,-3.7236e-4 c -0.027178,-0.005245 -0.076897,-0.005381 -0.1104855,-3.0163e-4 -0.033589,0.005079 -0.011352,0.00937 0.049415,0.009536 0.060767,1.6595e-4 0.088249,-0.00399 0.06107,-0.009234 z M 10.624816,0.1653778 c -0.29995,-0.003471 -0.7971342,-0.003474 -1.104854,-7.26e-6 -0.3077199,0.003467 -0.062306,0.006307 0.545364,0.006311 0.60767,3.99e-6 0.85944,-0.002833 0.55949,-0.006304 z m 12.801985,-0.022117 c -0.95196,-0.003188 -2.503175,-0.003187 -3.447146,8.5e-7 -0.94397,0.003188 -0.165094,0.005796 1.730836,0.005796 1.89593,-4.7e-7 2.668269,-0.002609 1.71631,-0.005797 z"
   style="fill:#38ffc7;fill-opacity:1;stroke:#38ffc7;stroke-width:0.02209709;stroke-opacity:1" /></svg>